<?xml version="1.0" encoding="UTF-8" standalone="no"?>
<!-- Created with Inkscape (http://www.inkscape.org/) -->

<svg
   xmlns:dc="http://purl.org/dc/elements/1.1/"
   xmlns:cc="http://creativecommons.org/ns#"
   xmlns:rdf="http://www.w3.org/1999/02/22-rdf-syntax-ns#"
   xmlns:svg="http://www.w3.org/2000/svg"
   xmlns="http://www.w3.org/2000/svg"
   xmlns:sodipodi="http://sodipodi.sourceforge.net/DTD/sodipodi-0.dtd"
   xmlns:inkscape="http://www.inkscape.org/namespaces/inkscape"
   id="svg3135"
   version="1.1"
   inkscape:version="0.48.4 r9939"
   width="389.69745"
   height="449.98386"
   sodipodi:docname="PDXGO.svg">
  <metadata
     id="metadata3141">
    <rdf:RDF>
      <cc:Work
         rdf:about="">
        <dc:format>image/svg+xml</dc:format>
        <dc:type
           rdf:resource="http://purl.org/dc/dcmitype/StillImage" />
        <dc:title></dc:title>
      </cc:Work>
    </rdf:RDF>
  </metadata>
  <defs
     id="defs3139" />
  <sodipodi:namedview
     pagecolor="#878787"
     bordercolor="#666666"
     borderopacity="1"
     objecttolerance="10"
     gridtolerance="10"
     guidetolerance="10"
     inkscape:pageopacity="0"
     inkscape:pageshadow="2"
     inkscape:window-width="1920"
     inkscape:window-height="1149"
     id="namedview3137"
     showgrid="true"
     fit-margin-top="0"
     fit-margin-left="0"
     fit-margin-right="0"
     fit-margin-bottom="0"
     inkscape:zoom="1.3350176"
     inkscape:cx="266.06669"
     inkscape:cy="120.91809"
     inkscape:window-x="10"
     inkscape:window-y="24"
     inkscape:window-maximized="0"
     inkscape:current-layer="svg3135">
    <inkscape:grid
       type="xygrid"
       id="grid3173"
       empspacing="5"
       visible="true"
       enabled="true"
       snapvisiblegridlinesonly="true"
       originx="-5.3044465px"
       originy="-1549.4805px" />
  </sodipodi:namedview>
  <path
     sodipodi:type="star"
     style="fill:#ffffff;fill-opacity:1"
     id="path3169"
     sodipodi:sides="6"
     sodipodi:cx="-89.886452"
     sodipodi:cy="-34.430103"
     sodipodi:r1="1171.3514"
     sodipodi:r2="1014.4202"
     sodipodi:arg1="0.52359878"
     sodipodi:arg2="1.0471976"
     inkscape:flatsided="true"
     inkscape:rounded="0"
     inkscape:randomized="0"
     d="M 924.53365,551.24562 -89.886457,1136.9213 -1104.3066,551.24561 l 0,-1171.35144 1014.420153,-585.67567 1014.420107,585.67568 z"
     transform="matrix(0.19207893,0,0,0.19207893,212.11402,231.60523)" />
  <path
     style="fill:#02d6fe"
     d="m 111.30879,370.0015 -82.347246,-47.5551 -0.05545,-95.27337 -0.05545,-95.27336 0.828142,-0.53867 c 2.109295,-1.372 163.592144,-94.4828 164.007744,-94.566645 0.33054,-0.06668 24.92036,14.015936 82.0161,46.970682 44.84922,25.886253 81.91658,47.306303 82.37192,47.600103 l 0.82789,0.53419 -0.003,95.09359 c -0.003,52.30147 -0.0764,95.20214 -0.16558,95.33481 -0.18554,0.27592 -164.62211,95.24522 -164.89723,95.23535 -0.0991,-0.003 -37.23651,-21.40628 -82.5275,-47.56158 z M 255.2509,357.47095 c 3.23766,-1.08622 5.01002,-2.09802 7.58058,-4.32766 2.76015,-2.39414 5.21355,-6.6951 6.03018,-10.5714 0.26236,-1.24534 0.60361,-2.27845 0.8051,-2.43745 0.27378,-0.21603 4.56195,-0.27594 19.74224,-0.27594 17.88365,0 19.40348,-0.0285 19.53347,-0.36738 0.0775,-0.20206 -0.57164,-6.73409 -1.44263,-14.51564 -2.64137,-23.59869 -3.63016,-35.37684 -3.93079,-46.82222 -0.23368,-8.89624 0.13907,-10.66956 4.10439,-19.52694 0.85539,-1.91068 1.20344,-3.01532 1.42595,-4.52579 0.16189,-1.09897 0.6647,-3.03503 1.11732,-4.30237 0.60657,-1.69825 0.79014,-2.51106 0.69807,-3.09078 -0.1758,-1.107 -1.30492,-2.08806 -2.8077,-2.43946 -2.97994,-0.69684 -5.04189,-2.237 -6.26319,-4.67821 -0.99459,-1.98808 -0.99779,-2.77013 -0.0199,-4.85005 0.59517,-1.2659 0.88641,-2.37209 1.32223,-5.02199 0.69212,-4.20819 0.96647,-4.72375 3.65448,-6.86732 1.1514,-0.91821 2.22441,-1.98239 2.5375,-2.51667 0.37313,-0.63666 0.8175,-2.26669 1.4232,-5.22051 0.8348,-4.07097 1.56687,-7.07972 4.21426,-17.32023 1.07572,-4.16095 1.13451,-4.52931 1.02048,-6.39194 -0.10285,-1.68012 -0.23913,-2.21554 -0.90865,-3.57021 -1.41123,-2.8555 -3.44045,-4.17386 -7.07256,-4.59502 -4.06294,-0.47113 -5.84537,-1.97881 -5.84917,-4.94761 0,-0.79364 -0.12312,-1.07395 -0.70441,-1.61693 -1.30352,-1.21768 -4.05899,-2.31994 -7.44962,-2.98003 -3.41944,-0.66571 -14.65103,-0.45164 -37.10507,0.70719 -6.72126,0.34687 -7.64379,0.4399 -8.1133,0.81814 -0.34233,0.27576 -0.35706,1.1496 -0.0297,1.76125 0.24064,0.44962 0.34025,0.45671 4.36021,0.31019 2.26267,-0.0825 8.28652,-0.35673 13.3863,-0.60947 5.18477,-0.25694 12.77599,-0.47308 17.22007,-0.49028 8.4762,-0.0328 9.27466,0.041 13.04844,1.20664 1.82606,0.56401 2.51413,1.20277 2.52071,2.34009 0.0108,1.85974 1.64213,3.97342 3.96247,5.13398 1.7302,0.86539 2.61069,1.11594 4.64107,1.32062 2.31222,0.23309 3.53915,0.95169 4.47947,2.62356 1.16263,2.06707 1.10475,3.21681 -0.46872,9.31098 -2.46478,9.54631 -3.32919,13.11262 -4.00254,16.5134 -0.36782,1.85768 -0.81651,3.66331 -0.9971,4.01253 -0.18057,0.34921 -1.05813,1.23128 -1.95011,1.96013 -3.26576,2.66854 -3.85763,3.74563 -4.63573,8.43627 -0.42765,2.57795 -0.69251,3.53855 -1.33548,4.84369 -0.66015,1.33999 -0.80076,1.86472 -0.79484,2.9659 0.0126,2.33744 1.30409,5.10131 3.36679,7.20507 1.3312,1.35771 2.6871,2.15555 4.53318,2.66747 0.79678,0.22093 1.53808,0.49111 1.64734,0.60037 0.11769,0.11769 -0.16032,1.3108 -0.68218,2.92761 -0.48448,1.5009 -0.95269,3.27232 -1.04051,3.93646 -0.0946,0.71523 -0.8776,2.92044 -1.92065,5.40887 -2.57465,6.14242 -3.02727,7.6233 -3.29692,10.78645 -0.65279,7.65739 0.73097,27.6722 3.78798,54.78897 1.14648,10.16984 1.23567,11.28608 0.92189,11.53652 -0.27367,0.21841 -4.14043,0.26525 -18.21908,0.22076 l -17.87171,-0.0565 -0.60193,-2.42846 c -0.7311,-2.94964 -1.39498,-4.47995 -2.97086,-6.84837 -2.95677,-4.44376 -8.03369,-7.70192 -12.99737,-8.34117 -3.03575,-0.39098 -117.70696,-0.37155 -120.7879,0.0207 -3.55232,0.45199 -6.84243,2.06061 -9.76088,4.77237 -1.80769,1.67966 -3.15816,3.35174 -4.21055,5.21324 -0.79332,1.40325 -1.93611,4.70134 -2.15697,6.22504 -0.083,0.57285 -0.28124,1.14964 -0.44046,1.28179 -0.20434,0.16959 -4.824,0.21979 -15.705864,0.17065 l -15.416375,-0.0695 -1.306695,-0.52453 c -1.704588,-0.68428 -3.055504,-1.95495 -3.898226,-3.66682 -0.602812,-1.22444 -0.692003,-1.66155 -0.793888,-3.89052 -0.07436,-1.62708 0.0093,-3.54828 0.237591,-5.45728 0.193792,-1.62041 0.352348,-3.39213 0.352348,-3.93709 0,-1.2884 -0.585104,-3.52615 -2.096607,-8.01869 -1.360937,-4.04495 -1.877253,-6.03305 -1.877253,-7.22823 0,-0.50616 0.693219,-2.44353 1.893457,-5.29175 2.682335,-6.3652 3.148624,-8.34383 3.422884,-14.52436 0.381535,-8.59806 0.985629,-10.71565 5.521769,-19.35619 l 1.932733,-3.68152 0.463065,-4.04543 c 1.134583,-9.91232 1.670722,-12.82257 2.845704,-15.44684 1.936462,-4.32496 3.280378,-10.53899 5.770465,-26.68145 1.900279,-12.31901 2.063673,-14.31413 1.543782,-18.85222 -0.247684,-2.16197 -0.334425,-1.89864 1.277198,-3.87814 0.825962,-1.01452 0.938272,-1.285 0.938272,-2.25981 0,-1.3475 -0.4645,-3.20478 -1.362526,-5.44814 l -0.674055,-1.68382 0.147122,-3.64271 c 0.08091,-2.00349 0.390121,-5.38055 0.687124,-7.50457 0.297,-2.12403 0.541526,-4.11096 0.543381,-4.4154 0.0062,-1.00877 0.237374,-1.11212 2.989824,-1.33646 1.7872,-0.14567 3.69686,-0.4954 5.98108,-1.09535 1.84559,-0.48475 3.53693,-0.88045 3.75857,-0.87933 0.22163,0.001 1.69447,0.60519 3.27298,1.34238 3.83336,1.79026 5.25,2.3143 8.38926,3.10339 4.42275,1.11171 4.98192,1.67239 5.51078,5.52569 0.17204,1.25359 0.47333,3.47141 0.6695,4.9285 0.89403,6.64013 3.48462,10.95921 7.8645,13.11189 2.61731,1.28639 4.81431,1.80196 8.30843,1.94975 4.86467,0.20576 8.6373,-0.50158 13.7427,-2.57668 2.70512,-1.0995 4.74874,-1.60562 7.83734,-1.94098 l 1.54539,-0.16779 0.0687,-0.95459 c 0.11142,-1.54857 -0.10628,-1.66126 -2.93423,-1.51893 -2.72082,0.13694 -4.05906,0.48018 -7.8418,2.01129 -4.57495,1.85177 -8.20578,2.49567 -12.6356,2.24084 -5.74082,-0.33025 -9.27623,-2.22734 -11.28899,-6.05763 -1.04981,-1.99777 -1.3501,-3.24153 -2.1384,-8.8568 -0.78325,-5.57919 -1.03716,-6.4689 -2.23439,-7.82902 -1.18817,-1.34982 -1.9762,-1.71949 -5.62352,-2.638 -2.25736,-0.56846 -4.13337,-1.24562 -7.08889,-2.55873 -2.41246,-1.07185 -4.43997,-1.83334 -5.07188,-1.9049 -0.804,-0.091 -1.88736,0.0988 -4.58507,0.80328 -2.04742,0.5347 -4.29444,0.97307 -5.34524,1.04281 -1.66465,0.11047 -1.91036,0.071 -3.00448,-0.48257 l -1.19156,-0.60288 -0.914187,0.46639 c -0.502804,0.25651 -0.917586,0.53888 -0.921713,0.62748 -0.0042,0.0886 -0.04645,1.55194 -0.09403,3.25187 -0.0476,1.69993 -0.298768,4.38229 -0.558175,5.96079 -0.281282,1.71153 -0.522054,4.42951 -0.59652,6.73349 l -0.124889,3.86348 1.021725,3.04239 c 0.561947,1.67331 1.021721,3.32962 1.021721,3.68069 0,0.46621 -0.229224,0.83639 -0.850205,1.37301 -1.425978,1.23227 -1.434344,1.27494 -1.264285,6.46042 0.177432,5.41089 0.12915,5.93172 -1.546605,16.68245 -2.480176,15.91147 -3.615154,21.33819 -5.376236,25.70575 -1.689665,4.19037 -1.975564,5.58209 -3.088973,15.03683 l -0.64871,5.50876 -1.158624,2.09732 c -2.823826,5.1116 -4.94867,10.13834 -5.608331,13.26747 -0.308175,1.46181 -0.637915,5.05687 -0.878887,9.58224 -0.280555,5.26859 -0.653413,6.70918 -3.317599,12.81799 -1.009341,2.31438 -1.902952,4.56924 -1.985785,5.0108 -0.227592,1.21318 0.366964,3.71929 2.326897,9.80829 1.007946,3.13135 1.761104,5.85252 1.760111,6.35909 0,0.48702 -0.149992,2.07387 -0.331157,3.52634 -1.085991,8.70674 0.398403,12.95603 5.521021,15.80473 l 1.766158,0.98219 16.154013,0.1114 c 8.884735,0.0613 16.216335,0.17369 16.292485,0.24984 0.0761,0.0761 0.38199,1.21817 0.67968,2.53785 1.62639,7.20964 6.67236,12.66203 13.78747,14.89799 l 1.65577,0.52033 28.36896,0.11363 c 15.60292,0.0625 42.9729,0.0787 60.82216,0.036 l 32.45321,-0.0777 1.98693,-0.66657 z m -36.85691,-3.27631 c -2.71866,-0.45484 -5.79637,-2.74899 -7.49606,-5.58761 -0.90661,-1.51414 -1.78951,-4.066 -2.11025,-6.09931 -0.3797,-2.40728 -0.27898,-7.12873 0.20179,-9.45867 1.22787,-5.95063 5.44529,-10.31699 10.72331,-11.10198 2.63969,-0.39261 6.58368,0.31947 8.43859,1.52354 0.56665,0.36782 0.6333,1.23579 0.18924,2.46459 -0.44132,1.22128 -0.72401,1.26603 -2.80108,0.4434 -1.61061,-0.63787 -2.12401,-0.73727 -3.84569,-0.7445 -1.68867,-0.007 -2.16923,0.0775 -3.20117,0.56335 -2.41668,1.13783 -4.15452,3.36634 -5.19594,6.66299 -0.47993,1.51922 -0.54364,2.11811 -0.54027,5.07771 0.003,2.05243 0.1264,3.93364 0.31944,4.8446 0.68328,3.22432 2.6112,6.02593 4.9305,7.16483 1.14922,0.56435 1.47247,0.61825 3.7087,0.61825 1.75184,0 2.55374,-0.0863 2.81482,-0.30298 0.31191,-0.25887 0.36829,-0.85384 0.38701,-4.08424 0.0122,-2.0797 0.0865,-4.62573 0.16558,-5.65783 l 0.14366,-1.87655 1.74699,-0.0651 c 1.2485,-0.0465 1.79873,0.0166 1.92836,0.22076 0.0998,0.15724 0.18289,3.26904 0.18475,6.91508 0.003,5.44964 -0.0538,6.71081 -0.318,7.088 -0.7931,1.13231 -6.97106,1.96108 -10.37428,1.39168 z m 22.8611,-0.11469 c -3.36231,-0.90419 -5.86434,-3.45674 -7.22585,-7.37177 -1.38507,-3.98274 -1.56151,-11.1289 -0.38988,-15.79087 1.52163,-6.0547 6.40224,-9.78522 11.76131,-8.9898 5.46065,0.81047 8.80958,5.12666 9.71587,12.52212 1.03976,8.48453 -1.55732,16.43432 -6.12503,18.74894 -2.38334,1.20774 -5.29097,1.53896 -7.73642,0.88138 z m 4.88401,-3.74851 c 2.03903,-0.69478 3.81501,-3.26196 4.49611,-6.4991 0.49221,-2.33943 0.33465,-10.79677 -0.23446,-12.58388 -0.80636,-2.53221 -2.1686,-4.38265 -3.75989,-5.10738 -1.25731,-0.57263 -4.24267,-0.5669 -5.36246,0.0103 -2.65699,1.36953 -3.94317,4.6161 -4.17293,10.5333 -0.29322,7.55238 1.26828,12.21515 4.56807,13.64049 1.01123,0.43678 3.19301,0.43986 4.46556,0.006 z m -85.15704,3.42948 c -0.72854,-0.10939 -1.62266,-0.28412 -1.98693,-0.38825 l -0.66231,-0.18933 -0.0567,-14.78663 c -0.0445,-11.60175 0.003,-14.86603 0.22077,-15.15535 0.73369,-0.97489 8.70837,-1.10383 11.29838,-0.18266 3.91661,1.393 6.56453,4.22175 8.0451,8.59449 0.54755,1.61715 0.57327,1.90901 0.57758,6.54952 0.004,4.76993 -0.007,4.88857 -0.61862,6.6231 -0.87074,2.468 -1.78382,3.97927 -3.33765,5.52421 -1.55338,1.54448 -3.44739,2.61222 -5.44423,3.06912 -1.791,0.40981 -6.30414,0.60177 -8.03535,0.34178 z m 6.96938,-3.8815 c 3.29458,-0.97604 5.11778,-3.08604 6.08359,-7.04055 0.5092,-2.08502 0.5141,-7.09385 0.009,-9.37751 -0.93608,-4.23349 -3.33488,-6.65412 -7.21174,-7.27738 -1.92039,-0.30869 -3.82504,-0.29453 -4.15048,0.031 -0.34903,0.34902 -0.38387,22.94348 -0.0364,23.59273 0.19933,0.37245 0.47646,0.42704 2.16763,0.42704 1.13811,0 2.43443,-0.14675 3.13822,-0.35525 z m -33.8939,3.68208 c -0.18474,-0.29891 -0.43962,-29.17378 -0.26371,-29.8747 0.19258,-0.76735 0.94553,-0.96655 4.66968,-1.23538 4.49747,-0.32467 7.77614,0.1119 10.17466,1.35477 0.35369,0.18328 1.12007,0.75356 1.70306,1.26725 3.63107,3.1995 3.67216,10.39567 0.0799,13.98794 -1.93868,1.93868 -4.20934,2.68375 -8.90691,2.92253 -1.60056,0.0814 -3.02781,0.22069 -3.17171,0.30963 -0.18485,0.11421 -0.29469,1.74029 -0.37432,5.5416 -0.064,3.05395 -0.20772,5.49924 -0.33246,5.65589 -0.25947,0.32586 -3.3823,0.38737 -3.57817,0.0705 z m 9.51146,-15.26625 c 2.01313,-0.27999 3.06563,-0.76394 4.01629,-1.84668 2.18964,-2.49386 1.58849,-7.79844 -1.07005,-9.44209 -1.11624,-0.69011 -3.13288,-1.03841 -6.0778,-1.04969 -2.75364,-0.0106 -2.58405,-0.43904 -2.49293,6.29843 0.0426,3.14968 0.15782,5.85089 0.25606,6.00268 0.22539,0.34826 2.9946,0.3675 5.36843,0.0374 z m 38.97223,15.18168 c -0.17937,-0.21613 -0.0826,-0.62415 0.37955,-1.60057 0.95726,-2.02248 3.86165,-7.15484 6.02311,-10.64351 1.07387,-1.73327 1.95252,-3.31413 1.95252,-3.51296 0,-0.19885 -1.28089,-2.60557 -2.84639,-5.34823 -3.75718,-6.58233 -5.1611,-9.23719 -5.01214,-9.47819 0.20445,-0.33084 1.39857,-0.47508 2.75728,-0.33307 l 1.28709,0.13453 2.62458,4.51307 c 2.77446,4.77077 3.61215,5.97275 3.99694,5.73494 0.13005,-0.0804 1.56338,-2.38408 3.18515,-5.11932 2.86456,-4.83135 2.9738,-4.98001 3.83015,-5.21252 0.88076,-0.23912 2.85965,-0.16861 3.14021,0.11193 0.22311,0.22312 -0.71848,2.02129 -4.6048,8.79373 l -3.53175,6.15456 2.09352,3.35647 c 3.9919,6.40011 6.62365,11.31732 6.50452,12.15317 -0.0637,0.44678 -0.18844,0.47564 -2.0547,0.47564 l -1.98693,0 -2.11423,-3.93028 c -2.52883,-4.70106 -4.26265,-7.43937 -4.71037,-7.43937 -0.49362,0 -1.22398,1.07372 -3.76714,5.53816 -1.27371,2.23593 -2.56345,4.48757 -2.86606,5.0036 l -0.55024,0.93829 -1.74457,0 c -1.17158,0 -1.82363,-0.0953 -1.9853,-0.29007 z m -55.53904,-36.9011 c 2.7457,-0.90939 6.42278,-2.81128 8.59131,-4.44367 2.70017,-2.03263 7.19439,-6.60178 8.94119,-9.09028 6.49812,-9.25729 9.56204,-19.77925 8.072,-27.72044 -0.61959,-3.30213 -1.66808,-5.13077 -3.58633,-6.25493 -0.93966,-0.55068 -1.09751,-0.5728 -3.28828,-0.46099 -1.2657,0.0646 -2.30124,0.0388 -2.30124,-0.0573 0,-0.0961 0.89719,-0.84281 1.99375,-1.65929 2.12887,-1.58506 2.42165,-1.93534 2.42165,-2.89719 0,-0.84705 -2.53596,-3.30894 -4.2921,-4.16674 -1.06142,-0.51846 -1.60902,-0.64223 -2.87001,-0.64861 -1.42935,-0.007 -1.75016,0.0849 -3.87639,1.11282 -9.38213,4.53601 -20.39152,15.74663 -25.54123,26.00806 -1.5411,3.07085 -2.35089,5.18351 -3.09813,8.08264 -0.51934,2.01492 -0.59614,2.73673 -0.58718,5.51925 0.009,2.81195 0.0822,3.44275 0.60184,5.1881 0.32535,1.09281 1.09942,3.02183 1.72016,4.28673 0.94999,1.93589 1.4125,2.58379 2.92286,4.09445 1.8939,1.89431 3.58208,2.94553 5.68255,3.5385 1.88887,0.53324 6.2504,0.31188 8.49358,-0.43106 z m -7.7942,-4.96941 c -0.91798,-0.55975 -1.98477,-2.03959 -2.29155,-3.1789 -0.14909,-0.55371 -0.20563,-2.2928 -0.1478,-4.54695 0.0822,-3.20548 0.16496,-3.86553 0.67886,-5.41647 0.65253,-1.96929 3.49139,-7.91204 3.90035,-8.1648 0.15244,-0.0942 0.52691,0.0909 0.89262,0.44127 1.07722,1.03204 1.4333,0.74468 3.39924,-2.74304 0.95752,-1.6987 2.36023,-3.91315 3.11714,-4.92101 3.3757,-4.49495 8.60913,-8.46095 12.64578,-9.58323 1.4686,-0.40832 2.10544,-0.32633 3.01353,0.388 1.96969,1.54936 1.96167,6.00605 -0.0212,11.73353 -1.92353,5.55628 -6.32688,13.27277 -10.12914,17.75042 -3.12241,3.67708 -7.66337,6.92196 -11.56682,8.26542 -1.53063,0.5268 -2.59948,0.51938 -3.49109,-0.0243 z m 91.69376,5.05878 c 2.88505,-1.39663 7.07416,-7.73589 10.529,-15.93324 l 1.18423,-2.80985 4.64748,-5.24825 c 5.27362,-5.95532 5.6573,-6.34412 6.09513,-6.17611 0.1741,0.0668 0.62935,0.6682 1.01168,1.33645 2.83908,4.96218 7.02289,6.064 11.69463,3.07979 1.686,-1.07698 2.5725,-1.87187 4.27232,-3.83081 1.29539,-1.49282 1.61622,-1.73233 3.07023,-2.29205 2.12257,-0.81709 3.63478,-1.67582 4.87769,-2.76987 0.5546,-0.48819 1.15368,-0.88761 1.33127,-0.88761 0.19647,0 0.51526,0.54018 0.81429,1.37981 0.63741,1.78986 1.82557,3.60032 2.72112,4.14636 0.42262,0.25768 1.10642,0.4333 1.68896,0.43381 0.88297,0 1.07762,-0.10319 1.98693,-1.06085 0.63732,-0.67116 1.82007,-2.55548 3.21578,-5.12316 3.22126,-5.92616 6.8237,-11.23941 7.29851,-10.76458 0.0689,0.0689 -0.28193,1.20346 -0.77952,2.52133 -1.27625,3.37997 -1.77281,5.48662 -1.77027,7.5106 0.005,4.25878 2.79771,6.46397 6.10089,4.81793 2.46998,-1.23084 5.07862,-4.16644 9.35721,-10.52998 l 2.62834,-3.90914 -0.34694,-0.83742 c -0.41611,-1.00446 -0.70819,-1.38937 -1.05429,-1.38937 -0.14184,0 -1.26581,1.21699 -2.49773,2.70443 -2.47075,2.9832 -3.49556,4.0312 -4.78252,4.89063 -1.70796,1.14057 -2.69962,0.51793 -2.50976,-1.57579 0.15077,-1.66264 0.805,-3.16591 3.2442,-7.45428 2.4046,-4.22752 2.60199,-4.81426 2.11387,-6.28382 -0.43474,-1.3089 -1.82691,-3.32796 -2.45024,-3.55356 -0.83716,-0.30299 -1.90944,0.48006 -5.29022,3.86334 -3.97291,3.97583 -6.86584,7.5261 -10.14335,12.44823 -2.52861,3.79747 -2.9917,4.31142 -3.46141,3.84171 -0.41635,-0.41635 0.0262,-1.40983 2.71178,-6.08815 3.38101,-5.88968 3.81317,-7.23859 2.50943,-7.83261 -1.20092,-0.54718 -4.37924,-0.008 -5.37052,0.91131 -1.33095,1.23413 -2.94207,4.10668 -4.42052,7.88165 -0.49934,1.27495 -1.19359,2.74695 -1.54279,3.27113 -1.64164,2.46423 -4.37515,4.63621 -5.00651,3.97803 -0.23037,-0.24013 -0.20159,-0.74591 0.155,-2.72337 0.49349,-2.73652 0.43651,-5.2119 -0.1539,-6.68748 -0.19606,-0.49 -0.80062,-1.29513 -1.34347,-1.78917 -0.83701,-0.76174 -0.95194,-0.96373 -0.75636,-1.32919 0.54848,-1.02483 0.16829,-2.23947 -0.86879,-2.77576 -2.54994,-1.31864 -8.74424,1.40387 -13.20638,5.80446 -3.73634,3.68481 -5.77155,7.68262 -5.781,11.35577 -0.004,1.43384 0.13405,1.24711 -4.64319,6.29429 -2.11562,2.23517 -2.86626,2.8386 -2.86626,2.3042 0,-0.0987 0.44103,-1.66482 0.98007,-3.48024 1.67361,-5.63664 2.58791,-9.34506 2.4329,-9.868 -0.49653,-1.67523 -2.49949,-3.23561 -3.543,-2.76016 -0.62222,0.28349 -1.96024,2.27837 -5.51383,8.22055 -2.1843,3.65251 -2.93715,4.71081 -4.40119,6.18702 -1.91714,1.93302 -4.36506,3.42569 -5.618,3.42569 -0.5959,0 -0.74633,-0.11933 -1.04173,-0.8263 -0.43966,-1.05228 -0.28391,-2.75325 0.3694,-4.03382 0.7148,-1.40115 2.04093,-2.72137 7.2838,-7.25142 6.8175,-5.89059 7.93678,-7.1125 7.63104,-8.33069 -0.23217,-0.92503 -1.05195,-1.26521 -2.75517,-1.14335 -1.2635,0.0904 -1.83775,0.2802 -3.46217,1.14436 -2.8356,1.50844 -5.18077,3.25857 -7.71843,5.76001 -2.9128,2.8712 -4.28113,4.7266 -5.78003,7.83733 -1.53477,3.18521 -2.49298,4.44309 -6.22896,8.17711 -2.61862,2.6172 -3.22883,3.10862 -4.90582,3.95088 -1.72435,0.86606 -2.0802,0.96419 -3.5708,0.98487 -1.35014,0.0188 -1.77067,-0.0614 -2.27941,-0.43427 -0.80091,-0.58703 -1.39666,-1.76062 -1.39288,-2.74393 0.003,-0.74609 0.12217,-0.85632 3.46472,-3.20117 7.04833,-4.94452 10.57544,-9.54482 10.13962,-13.22475 -0.24508,-2.06921 -1.4638,-3.00092 -3.92605,-3.0015 -3.39809,0 -7.20465,1.8956 -10.50399,5.23301 -2.8258,2.85839 -4.47625,5.70099 -5.8184,10.02108 -0.86626,2.78831 -1.86862,4.30224 -4.83158,7.29749 -2.69081,2.72015 -3.61914,3.19666 -4.97141,2.55181 -0.5634,-0.26867 -0.81967,-0.58034 -1.016,-1.23562 -0.49537,-1.65335 0.50408,-4.20205 3.21293,-8.19344 0.94768,-1.39638 1.85849,-2.85854 2.024,-3.24927 0.64944,-1.53319 0.18635,-3.25685 -1.28519,-4.78354 -1.02179,-1.06012 -1.06288,-1.07882 -2.06586,-0.94134 -0.56283,0.0771 -2.77673,0.7405 -4.91977,1.47412 -3.61114,1.2362 -3.91684,1.30597 -4.17505,0.9528 -0.15326,-0.20958 -0.27863,-0.57775 -0.27863,-0.81819 0,-0.5914 -0.62686,-1.24479 -1.19326,-1.2438 -1.55526,0.003 -4.74506,3.56579 -6.11825,6.83409 -1.21441,2.89037 -1.07619,5.22256 0.37518,6.32955 0.41511,0.31662 0.75477,0.68858 0.75477,0.82654 0,0.13798 -0.59628,1.27695 -1.32505,2.53106 -0.72878,1.25413 -1.38396,2.51504 -1.456,2.80201 -0.16692,0.66507 0.29537,2.09063 0.67797,2.09063 0.60804,0 3.52691,-3.98146 5.58722,-7.6212 l 1.12734,-1.99159 2.71678,-1.16024 c 2.68529,-1.14681 3.2687,-1.31965 3.2687,-0.96849 0,0.099 -0.59725,1.48638 -1.32721,3.08299 -1.71951,3.76103 -2.05921,5.10199 -1.93919,7.65511 0.10923,2.32365 0.53697,3.35071 1.91328,4.59411 1.66677,1.50583 3.82844,1.57314 5.85016,0.18218 1.38041,-0.94975 4.38341,-4.19436 6.71861,-7.25912 1.12952,-1.48242 2.14707,-2.69531 2.26119,-2.69531 0.11414,0 0.64209,0.91895 1.17322,2.04212 1.14769,2.42699 2.11641,3.60162 3.6656,4.44481 2.14714,1.16862 4.72309,0.97485 8.06636,-0.60672 2.86258,-1.35418 6.2425,-4.49859 9.74877,-9.06946 0.83078,-1.08303 1.62637,-2.00618 1.76799,-2.05144 0.14163,-0.0453 0.63684,0.6435 1.10048,1.53056 0.46361,0.88703 1.30466,2.07773 1.86897,2.64595 3.07747,3.09884 6.5225,1.34189 12.95611,-6.60758 1.74266,-2.15322 2.41075,-2.72998 2.17371,-1.87655 -0.059,0.21249 -0.58521,2.12491 -1.16931,4.24983 l -1.06198,3.86347 -2.9705,3.97386 c -3.72569,4.98411 -5.08531,7.06701 -6.33489,9.7049 -0.91226,1.92585 -1.61886,4.35631 -1.62816,5.6004 -0.004,0.60152 1.11257,1.80438 1.67565,1.80438 0.21386,0 0.81082,-0.20428 1.32658,-0.45397 z m -25.517,-27.41825 c 0.0186,-0.67778 1.34507,-3.57031 2.28676,-4.98684 1.43845,-2.16372 4.02654,-4.44806 5.04204,-4.45026 0.52324,-0.002 0.72639,0.95454 0.38045,1.78972 -0.52989,1.27927 -2.03274,3.38802 -3.49444,4.90325 -2.27746,2.3609 -4.23942,3.63827 -4.21481,2.74413 z m 53.98154,-2.45275 c -0.39337,-0.39337 -0.55892,-0.87511 -0.6758,-1.96647 -0.35482,-3.31327 0.60487,-5.65502 3.6129,-8.81594 2.04511,-2.14907 3.50828,-3.39748 3.72634,-3.17943 0.0777,0.0777 -0.0904,1.28114 -0.37339,2.67437 -0.60953,3.00044 -0.53387,4.66642 0.30579,6.7328 0.50265,1.23705 0.5262,1.42602 0.24532,1.96918 -0.43214,0.83568 -1.97808,2.18686 -3.06866,2.68208 -1.3469,0.61159 -3.10944,0.56649 -3.7725,-0.0966 z M 105.84683,265.05232 c 0.8125,-0.58248 1.82036,-2.3033 3.13204,-5.3476 1.45126,-3.36823 1.53826,-3.90669 0.77734,-4.81101 -0.55074,-0.65449 -0.57672,-0.77415 -0.35573,-1.63831 0.13114,-0.51274 0.47061,-1.52832 0.75439,-2.25687 l 0.51601,-1.32461 1.20203,-0.18814 c 8.93207,-1.39799 15.88279,-3.85346 21.51289,-7.59977 2.9724,-1.97788 6.9196,-5.90887 8.4568,-8.42209 2.40014,-3.92408 3.27433,-7.13686 3.06819,-11.27588 -0.19551,-3.9253 -1.47805,-7.11567 -3.77011,-9.37834 -1.45518,-1.43653 -2.94041,-2.26478 -5.21602,-2.90879 -2.00429,-0.56722 -8.81747,-0.56891 -12.14236,-0.003 -7.08504,1.20586 -14.86524,3.724 -20.32093,6.57708 -3.514751,1.83804 -4.028373,2.389 -5.703906,6.11847 -2.281748,5.07884 -2.670678,7.90101 -1.019493,7.39761 0.242846,-0.074 2.87553,-1.35522 5.850399,-2.84708 2.97488,-1.49185 6.55136,-3.16027 7.94773,-3.70758 3.61979,-1.41885 7.24329,-2.48264 7.51861,-2.20734 0.21344,0.21347 -1.58868,4.29966 -5.59275,12.68115 l -1.43403,3.00175 -1.8465,1.06159 c -5.79084,3.32928 -7.80009,5.53204 -7.25415,7.95272 0.25938,1.15007 0.75702,1.78368 2.10248,2.67703 0.92523,0.61432 1.20786,0.93059 1.20786,1.35173 0,0.30237 -0.53795,2.20404 -1.19543,4.22592 -1.81934,5.59484 -2.34001,8.95134 -1.6118,10.39058 0.58317,1.15256 2.16823,1.37562 3.41644,0.48078 z m 9.61613,-25.11812 c -0.40421,-1.05336 0.60784,-2.0145 4.12471,-3.91719 1.57908,-0.85431 2.11478,-1.25768 2.16799,-1.63242 0.10628,-0.74838 -0.43322,-0.81866 -2.32891,-0.30336 -1.01793,0.27672 -1.7815,0.38198 -1.90134,0.26215 -0.11983,-0.11984 0.60467,-2.04672 1.80403,-4.79798 2.56201,-5.8771 3.11862,-7.37286 3.30691,-8.88668 l 0.15304,-1.23031 1.32436,-0.26227 c 2.60968,-0.51681 8.45074,-0.82008 10.66844,-0.55392 2.58003,0.30963 4.26893,1.03212 4.79621,2.05177 0.49972,0.96634 0.33674,3.21078 -0.35109,4.8356 -2.47574,5.84809 -8.86577,11.34001 -15.8897,13.65638 -3.28562,1.08351 -7.5941,1.50933 -7.87465,0.77823 z m 36.18329,12.72057 c 1.54051,-0.58205 3.77912,-2.30808 5.1078,-3.9382 0.69368,-0.85109 1.39306,-1.44887 1.98693,-1.69839 2.34341,-0.98452 3.29093,-1.52214 4.33149,-2.4577 1.13392,-1.01949 4.28305,-5.49514 5.12147,-7.27879 0.40597,-0.86365 0.65158,-1.06069 2.29647,-1.84217 2.06374,-0.98046 2.86255,-1.23298 3.03221,-0.95845 0.0634,0.10255 -0.36663,1.29221 -0.9556,2.6437 -2.14381,4.91935 -2.13209,7.64246 0.0418,9.72079 0.81824,0.78224 1.67827,1.17364 2.57208,1.17051 1.59116,-0.006 4.46821,-2.5182 7.70771,-6.73142 1.02697,-1.33566 1.94387,-2.4571 2.03757,-2.49209 0.0937,-0.035 0.21743,0.91451 0.27501,2.11003 0.23971,4.97814 2.3286,6.49265 6.31807,4.58076 1.87544,-0.89878 4.52234,-3.40823 7.56058,-7.1679 1.0253,-1.26879 1.96295,-2.31193 2.08367,-2.31809 0.1207,-0.006 0.58818,0.73391 1.03883,1.64459 1.90077,3.84106 4.57869,4.69118 8.07913,2.56477 1.3899,-0.84431 3.88173,-3.27331 5.46214,-5.3244 0.56135,-0.72854 1.13635,-1.34809 1.27773,-1.37679 0.1414,-0.0287 1.07934,0.6815 2.08431,1.57822 2.56277,2.28667 3.56889,2.70527 4.86205,2.02281 0.76958,-0.40616 2.76689,-2.48133 5.32807,-5.53579 1.11996,-1.33566 2.22229,-2.56153 2.44964,-2.72417 0.63175,-0.45194 0.84069,-0.15719 0.63661,0.89807 -0.29601,1.53053 -0.23329,4.30332 0.11626,5.1399 0.37275,0.89211 1.49945,1.65154 2.45198,1.65271 1.42818,0.002 4.20673,-2.32226 7.99943,-6.69081 1.12685,-1.29798 2.17785,-2.35995 2.33553,-2.35995 0.15769,0 0.52719,0.52157 0.82117,1.15904 0.29396,0.63748 0.91966,1.58127 1.39048,2.09732 0.7441,0.81561 0.97576,0.93827 1.77223,0.93827 0.50391,0 1.12231,-0.14434 1.37418,-0.32078 0.57045,-0.39955 1.68088,-2.14027 4.13425,-6.48097 2.53727,-4.48909 4.77837,-7.51459 4.77837,-6.45081 0,0.11791 -0.29152,1.01318 -0.64782,1.98947 -1.8197,4.98611 -1.71923,7.84866 0.33033,9.41194 2.33405,1.78026 5.29255,-0.1762 9.88666,-6.53811 1.00837,-1.39637 1.97965,-2.5671 2.15838,-2.6016 0.19017,-0.0367 0.54109,0.32969 0.8458,0.88308 1.43875,2.61302 3.03472,4.14774 4.31161,4.14615 1.38501,-0.002 3.08818,-1.55524 6.23835,-5.6902 1.04327,-1.36943 2.00459,-2.45454 2.13626,-2.41136 0.13166,0.0432 0.36897,0.8656 0.52737,1.82756 0.98221,5.9651 3.90474,6.52976 8.65319,1.67191 2.03089,-2.07767 4.54213,-5.3521 5.5599,-7.24965 0.39946,-0.74475 0.45355,-1.04473 0.27824,-1.54324 -0.1197,-0.34034 -0.37134,-0.64841 -0.55923,-0.68459 -0.20453,-0.0394 -1.39026,1.09004 -2.95479,2.81449 -2.43481,2.68366 -4.2051,4.20127 -4.90081,4.20127 -0.48203,0 -1.13217,-0.79839 -1.3816,-1.69664 -0.32113,-1.15643 -0.28223,-4.11996 0.0733,-5.58877 0.35178,-1.45312 0.98148,-3.23502 3.66681,-10.3762 3.15377,-8.38691 3.5297,-9.55774 3.5297,-10.99307 0,-1.99495 -0.91445,-2.89425 -2.49833,-2.45692 -2.09725,0.57908 -3.95306,4.43543 -6.7913,14.1123 -0.73351,2.50087 -0.7268,2.49247 -1.67308,2.09709 -1.22707,-0.5127 -2.01146,-0.40299 -3.93104,0.54985 -4.39118,2.17972 -8.51353,6.21554 -10.60103,10.3785 -1.13939,2.27223 -4.39071,6.44174 -5.91171,7.58119 -1.08442,0.81239 -1.6116,0.90548 -2.13926,0.37782 -0.95344,-0.95342 -0.40054,-2.82235 2.21913,-7.50119 0.98124,-1.75251 1.83774,-3.51723 1.90337,-3.92159 0.14894,-0.91788 -1.02309,-3.43297 -1.85323,-3.97691 -0.52027,-0.34089 -0.6044,-0.33822 -1.30959,0.0415 -2.56528,1.3815 -8.67542,8.37427 -12.31139,14.08983 -1.06151,1.66867 -1.62419,2.36078 -1.87655,2.30824 -0.69657,-0.14503 -0.27554,-1.31734 1.71784,-4.78301 2.2551,-3.92068 2.66831,-4.81055 2.66831,-5.74646 0,-0.81051 -0.49905,-1.11917 -1.80685,-1.11747 -1.46686,0.002 -2.54437,0.39085 -3.37003,1.2165 -0.99698,0.99699 -2.72084,4.48154 -3.76024,7.60085 -0.8224,2.4681 -0.87121,2.54956 -2.62871,4.38723 -3.09487,3.23603 -4.73466,4.26901 -6.00813,3.78484 -1.27455,-0.48457 -1.11078,-1.82273 0.72786,-5.94777 0.67758,-1.5202 1.27912,-3.2198 1.33674,-3.77692 0.093,-0.89939 0.0257,-1.10292 -0.60074,-1.8164 l -0.70552,-0.80354 0.46009,-0.64613 c 0.25305,-0.35536 0.46009,-0.79413 0.46009,-0.97504 0,-0.58361 -1.21868,-1.65469 -2.17605,-1.91248 -2.82669,-0.76115 -9.21516,2.78439 -14.504,8.04959 -2.98866,2.97532 -3.82058,4.13814 -5.16249,7.21583 -0.84902,1.94724 -1.10414,2.30382 -2.8573,3.99389 -2.22986,2.14959 -3.5149,2.97187 -4.9522,3.16889 -0.89951,0.12327 -1.12569,0.0651 -1.82751,-0.47022 -1.03837,-0.79199 -1.62498,-2.10304 -1.63114,-3.64538 -0.005,-1.16218 0.10619,-1.40112 2.45737,-5.2985 5.85105,-9.69888 7.16406,-13.28146 6.99722,-19.09207 -0.0885,-3.08363 -0.39174,-3.86521 -1.49936,-3.86521 -1.55771,0 -5.85725,5.95873 -9.38015,12.99994 -2.44366,4.88412 -3.33221,8.15574 -3.58851,13.21253 l -0.14219,2.80545 -1.00128,1.11052 c -4.53676,5.0317 -6.47415,6.55751 -7.87876,6.20499 -1.67564,-0.42057 -1.57385,-4.72139 0.22426,-9.47402 1.18121,-3.12207 1.27806,-3.2291 3.54075,-3.91295 2.9338,-0.88668 4.15112,-2.33838 5.09275,-6.07332 0.51726,-2.05167 0.40745,-2.30231 -1.0085,-2.30231 -1.32778,0 -1.46481,-0.20946 -0.99969,-1.52779 0.77972,-2.20992 0.27089,-3.31072 -1.38657,-2.99978 -2.01049,0.37717 -2.74201,1.08143 -4.45691,4.29082 l -0.99417,1.86058 -1.435,0.4798 c -3.12922,1.04628 -4.18856,1.93689 -5.37582,4.51948 -0.99223,2.15836 -1.38334,3.48457 -1.10864,3.75929 0.13655,0.13655 0.81316,0.0825 1.88831,-0.1508 2.01323,-0.43691 2.49669,-0.32427 2.28791,0.533 -0.40759,1.67362 -5.06597,8.76581 -7.26104,11.05467 -1.97006,2.05422 -3.94216,2.37674 -4.5134,0.73812 -0.47077,-1.35045 0.39187,-3.60564 2.72273,-7.11811 0.8012,-1.20737 1.54762,-2.51212 1.65869,-2.89946 0.29418,-1.02572 -0.10985,-2.23592 -1.09067,-3.26698 -1.10692,-1.16362 -1.63602,-1.15234 -5.48863,0.11692 -3.23609,1.06616 -3.86835,1.13491 -3.99565,0.43452 -0.11354,-0.6248 -0.69077,-1.21424 -1.18911,-1.21424 -0.56343,0 -2.90929,2.25343 -3.81509,3.66476 -1.17363,1.82869 -1.72388,3.60271 -1.60921,5.18812 0.0868,1.19936 0.18094,1.42916 0.79453,1.93872 l 0.69609,0.57806 -0.37187,0.7727 c -0.20452,0.42498 -1.03634,1.44328 -1.84848,2.26289 -1.0994,1.1095 -1.6294,1.4902 -2.07458,1.4902 -0.57703,0 -0.59334,-0.0328 -0.4658,-0.93827 0.0727,-0.51605 0.19467,-1.99263 0.27108,-3.28129 0.16233,-2.73817 -0.0465,-3.60418 -1.16891,-4.8465 -0.66543,-0.73655 -0.74055,-0.93677 -0.6109,-1.62789 0.30869,-1.64551 -1.25527,-2.5986 -3.48092,-2.12127 -1.44326,0.30952 -4.51974,1.91459 -6.43624,3.35794 -2.81831,2.12248 -5.53208,5.79351 -6.23537,8.43476 -0.61471,2.30861 -0.16509,5.55223 1.11611,8.05153 0.63685,1.24238 2.37321,2.98092 3.43394,3.43827 1.09895,0.47384 3.0746,0.43373 4.46232,-0.0906 z m -3.2859,-4.07539 c -1.04976,-0.45662 -1.25671,-1.03104 -1.10065,-3.05481 0.19675,-2.55145 0.83191,-3.76385 3.27908,-6.25926 1.11374,-1.13571 2.16613,-2.06491 2.33864,-2.06491 0.2422,0 0.28411,0.21378 0.1839,0.93828 -0.0714,0.51605 -0.18907,1.88206 -0.26148,3.03559 -0.11158,1.77702 -0.0622,2.29459 0.32316,3.3891 0.32213,0.91483 0.39293,1.40753 0.24258,1.68841 -0.38725,0.72362 -2.25177,2.19927 -3.0638,2.42483 -1.00267,0.2785 -1.08743,0.27426 -1.94143,-0.0972 z m 73.43138,-15.84957 c -0.40114,-0.42284 -0.455,-0.68319 -0.36213,-1.75037 0.15536,-1.785 1.02608,-3.22561 3.18437,-5.26862 2.70651,-2.56192 8.43382,-6.29173 8.78607,-5.72177 0.18583,0.30065 -1.66697,3.18195 -4.39526,6.83516 -2.62564,3.51579 -3.41364,4.41889 -4.8471,5.55528 -1.22929,0.97455 -1.70673,1.04524 -2.36595,0.35032 z M 206.45463,222.464 c 0.48927,-2.63955 2.54069,-7.91903 3.90043,-10.03799 0.67304,-1.04884 1.29374,-1.38339 1.29374,-0.69733 0,1.16999 -3.01435,8.63555 -4.32515,10.71201 -0.69812,1.10588 -1.07156,1.1159 -0.86902,0.0233 z m 70.32912,-2.68993 c -0.12571,-0.23486 -0.22636,-1.05447 -0.22368,-1.82136 0.008,-2.40748 0.99759,-3.91887 4.04735,-6.18369 2.00837,-1.49146 4.21949,-2.8272 4.68004,-2.8272 1.14876,0 -1.2032,4.0363 -4.91317,8.43173 -2.3633,2.79994 -3.1097,3.29896 -3.59054,2.40052 z m -86.5013,-9.05673 c 0.30219,-0.2377 0.92321,-1.15666 1.38003,-2.04212 0.45684,-0.88547 1.33155,-2.38478 1.94379,-3.33179 l 1.11317,-1.72186 -0.42845,-0.57387 c -0.60188,-0.80615 -2.46344,-1.80443 -3.67436,-1.9704 -0.92516,-0.12681 -1.08129,-0.0799 -1.64876,0.49548 -0.88818,0.90057 -3.83625,6.35731 -3.96889,7.34626 -0.0882,0.65772 0,0.95425 0.43003,1.45487 0.79107,0.91965 1.25424,0.65104 1.10843,-0.64277 -0.0939,-0.83305 -0.0508,-1.01009 0.246,-1.01009 0.19792,0 0.35988,0.0799 0.35988,0.17755 0,0.0976 0.29585,0.64406 0.65743,1.21424 0.53519,0.84388 0.77601,1.03669 1.29486,1.03669 0.35056,0 0.88465,-0.19449 1.18684,-0.43219 z m 13.41562,-8.4112 c 5.08425,-0.9231 10.44949,-2.8413 19.54116,-6.98642 9.1026,-4.1501 13.94462,-8.34689 16.82644,-14.5842 1.35738,-2.93787 2.52874,-8.37378 3.19867,-14.84386 0.45313,-4.37622 0.37747,-25.00392 -0.10666,-29.08141 -1.01695,-8.56524 -3.0978,-14.55305 -10.27404,-29.56454 -5.46434,-11.430471 -5.93924,-12.241581 -9.4005,-16.055774 -2.44679,-2.696301 -9.91265,-9.704416 -12.09388,-11.352377 -2.03733,-1.539266 -4.08264,-2.492913 -7.02985,-3.277787 -7.23876,-1.927751 -17.0204,0.415798 -26.56659,6.364987 -3.09873,1.931138 -10.32999,6.807641 -12.17459,8.210123 -4.84915,3.686866 -8.11186,7.744823 -9.51759,11.837298 -0.36924,1.07497 -0.4143,1.85993 -0.39289,6.84388 0.0355,8.27314 0.29835,10.63196 1.62353,14.57082 2.37182,7.04979 5.31243,13.06806 9.06124,18.54469 1.3714,2.00349 2.92001,4.30568 3.44134,5.11598 3.77888,5.87349 4.5368,9.9931 5.17161,28.10992 0.24231,6.91601 0.52055,10.6497 0.90482,12.14235 0.49592,1.92633 3.80186,6.81004 6.00517,8.87113 1.72011,1.60908 4.68545,3.60238 5.35911,3.60238 0.26556,0 0.9159,-0.19651 1.44522,-0.43669 0.5293,-0.24018 1.32484,-0.43888 1.76784,-0.44154 0.95708,-0.006 2.85325,0.94155 4.46368,2.23002 l 1.1332,0.90663 2.64623,-0.1521 c 1.45545,-0.0837 3.69075,-0.34173 4.96733,-0.57351 z m 7.28842,-56.59208 c 0,-0.36045 1.27463,-1.52729 2.17957,-1.99526 0.79568,-0.41145 1.03676,-1.02962 1.46942,-3.76763 0.55314,-3.50044 0.31818,-3.28056 3.36935,-3.15275 3.81264,0.15971 5.57629,1.08133 6.57704,3.43693 0.68951,1.62302 -0.14789,3.94151 -1.78418,4.93975 -0.87912,0.53633 -1.32199,0.51232 -3.11971,-0.16915 -1.36259,-0.51651 -1.74386,-0.5651 -3.75724,-0.47875 -2.05729,0.0882 -2.33003,0.15339 -3.33089,0.79563 -1.19066,0.76405 -1.60336,0.86475 -1.60336,0.39123 z m 11.57465,-1.58403 c 0.4279,-0.42788 0.42783,-0.44086 -0.009,-1.72302 -0.19578,-0.57462 -0.29207,-1.10867 -0.21397,-1.18677 0.0781,-0.0781 0.43018,0.0282 0.78235,0.23624 0.87864,0.51902 1.03528,0.14534 0.44776,-1.06827 -0.81486,-1.68326 -2.29956,-2.45416 -5.1483,-2.67313 -1.79826,-0.13822 -1.87557,-0.1247 -2.19646,0.3841 -0.36752,0.58274 -1.13445,4.4947 -0.96682,4.93156 0.0647,0.1686 0.73503,0.32382 1.72609,0.39969 0.89118,0.0682 2.11705,0.32618 2.72417,0.57324 1.33986,0.54525 2.38892,0.59169 2.85426,0.12636 z m -30.25659,-21.81601 c -0.95501,-0.43023 -1.31712,-1.02698 -2.09125,-3.44639 -0.36908,-1.15352 -0.74739,-2.17532 -0.84067,-2.27065 -0.0933,-0.0953 -0.65787,0.0374 -1.25466,0.29492 -1.98629,0.85719 -3.73375,0.0815 -4.74986,-2.10852 -0.78279,-1.6871 -0.49272,-3.1942 0.96368,-5.0069 0.63482,-0.79011 0.64511,-0.84156 0.37767,-1.88511 -0.23322,-0.91001 -0.22355,-1.17205 0.0638,-1.72658 1.03581,-1.99876 4.42327,-4.10262 6.63772,-4.12252 1.43739,-0.0129 2.08367,0.32774 2.78998,1.47056 l 0.48453,0.78397 1.84416,0 c 2.13994,0 2.62712,0.14803 3.7596,1.14236 0.96128,0.84403 1.63383,2.17489 1.64079,3.2469 0.004,0.5918 -0.18967,0.93503 -0.93342,1.65578 -0.51605,0.50007 -1.22207,1.108 -1.56895,1.35096 l -0.63065,0.44173 1.13461,2.20751 c 0.65056,1.26574 1.18955,2.64117 1.26338,3.22402 0.19403,1.53171 -0.46711,2.13355 -4.00667,3.64722 -3.25133,1.39041 -3.91084,1.53906 -4.88381,1.10074 z m 2.7313,-1.34107 c 0.68692,-0.31982 1.15904,-0.68279 1.15904,-0.89111 0,-0.56943 -2.69891,-6.32484 -3.02453,-6.44979 -0.38597,-0.14811 -1.93767,0.88018 -2.40542,1.59406 -0.33712,0.51449 -0.33645,0.65944 0.009,2.03541 0.73856,2.94021 1.56148,4.25846 2.65506,4.25319 0.24619,-10e-4 0.96918,-0.24498 1.60666,-0.54176 z m 4.48916,-1.89778 c 0.89977,-0.64069 0.85789,-1.61773 -0.15739,-3.67249 -0.98724,-1.99805 -1.77638,-2.71661 -2.98342,-2.71661 -1.24958,0 -1.80707,0.34396 -1.6395,1.01154 0.24284,0.96765 2.14725,5.27226 2.51477,5.68432 0.4363,0.48918 1.31481,0.37023 2.26554,-0.30676 z m -12.20517,-2.94484 c 0.32789,-0.16985 1.24192,-0.82612 2.03118,-1.45836 1.94295,-1.55645 3.49384,-2.30052 6.44816,-3.09365 3.04204,-0.81667 3.58986,-1.02968 4.39889,-1.71044 1.59842,-1.34497 -0.0174,-4.34593 -2.49007,-4.62464 -1.53967,-0.17354 -2.65299,0.26358 -4.59,1.80215 -1.93903,1.54017 -3.37403,2.18429 -5.42254,2.43397 -2.13842,0.26065 -3.14807,1.02638 -3.6758,2.78779 -0.33215,1.10866 0.19187,2.55357 1.26912,3.49941 0.85816,0.75348 1.17072,0.80946 2.03106,0.36377 z m -17.86032,-1.33539 c -4.25236,-1.17282 -7.45562,-4.34914 -8.69474,-8.62159 -0.4913,-1.69398 -0.51278,-4.69079 -0.0447,-6.24119 2.73612,-9.06355 13.60116,-12.01756 20.15576,-5.479995 2.51349,2.506958 3.61826,5.142083 3.61826,8.630405 0,3.43043 -1.09508,6.05717 -3.55686,8.5318 -1.53835,1.54638 -3.75716,2.81255 -5.71548,3.26158 -1.3423,0.30778 -4.51424,0.26318 -5.76221,-0.081 z m 7.80997,-1.74453 c 5.06731,-2.57447 7.50419,-8.19254 5.78066,-13.326874 -1.60873,-4.79231 -5.67293,-7.778937 -10.59685,-7.787238 -5.13677,-0.0086 -9.474,3.407504 -10.80266,8.508572 -1.37661,5.28515 1.53323,10.80246 6.87441,13.03448 1.17588,0.49138 1.53916,0.53306 4.1797,0.47955 2.86867,-0.0581 2.90536,-0.0654 4.56474,-0.90849 z m 0.10674,-8.62365 c -1.75036,-0.63013 -2.65891,-1.63278 -2.9292,-3.23257 -0.41019,-2.427933 1.47739,-4.624339 3.97415,-4.624339 1.33561,0 2.28375,0.421921 3.14025,1.3974 1.66949,1.901451 1.03173,4.970189 -1.27375,6.129029 -1.126,0.56596 -1.98612,0.6636 -2.91145,0.33048 z m 18.37087,-3.19357 c -3.70776,-1.18673 -6.92017,-4.110698 -8.24481,-7.504524 -1.05687,-2.707774 -0.88639,-6.969218 0.38599,-9.648479 1.02239,-2.152839 3.3667,-4.620869 5.40834,-5.693715 4.84577,-2.546382 10.62979,-1.722634 14.39187,2.04966 5.20017,5.214305 5.10506,12.972972 -0.22011,17.95643 -2.31687,2.168198 -5.22909,3.264448 -8.61544,3.243128 -1.16542,-0.007 -2.3514,-0.16104 -3.10584,-0.4025 z m 5.9141,-0.80109 c 5.03422,-1.186936 8.88375,-5.907951 8.88375,-10.894915 0,-1.919303 -0.76566,-4.637317 -1.78259,-6.327998 -3.00338,-4.993304 -10.17161,-6.836853 -15.21349,-3.912662 -6.15767,3.571315 -7.65396,11.751821 -3.17165,17.339984 0.954,1.189361 3.29166,2.850498 4.74605,3.372531 2.21346,0.79448 4.37056,0.93407 6.53793,0.42306 z m 1.57495,-9.340593 c -3.34137,-2.146236 -2.1306,-7.341295 1.79895,-7.718879 1.50344,-0.144458 2.87016,0.406782 3.85173,1.553511 0.7158,0.836252 0.77499,1.01631 0.77468,2.355914 0,1.735033 -0.42127,2.683918 -1.61268,3.635948 -0.71128,0.568365 -1.06729,0.683408 -2.31808,0.749072 -1.33078,0.06986 -1.57889,0.0126 -2.4946,-0.575566 z M 177.10201,193.70262 c 0.22338,-0.36141 -0.64169,-1.6429 -1.16002,-1.71843 -0.31528,-0.0459 -0.60058,0.12816 -0.86078,0.52525 -0.37957,0.57931 -0.37659,0.60414 0.1209,1.00699 0.54991,0.44529 1.67182,0.55524 1.8999,0.18619 z m 69.03483,-7.10985 c 0.62911,-0.67346 0.65898,-0.78638 0.53131,-2.00791 -0.12209,-1.16795 -0.0923,-1.30557 0.30506,-1.40948 1.21452,-0.31761 -0.37295,-2.08553 -2.60268,-2.89853 -2.13204,-0.77739 -2.36732,-0.67993 -3.52208,1.45884 -0.54197,1.00383 -0.93447,1.95789 -0.87222,2.12013 0.0623,0.16225 0.54414,0.51833 1.07083,0.79129 0.52671,0.27296 1.39646,0.85878 1.93282,1.30181 1.91593,1.58258 2.22178,1.64496 3.15696,0.64385 z m 1.35732,-58.24805 c 0.72675,-0.57166 0.73799,-1.23176 0.0371,-2.18174 -0.64496,-0.87421 -0.53521,-1.19208 0.34485,-0.99879 0.89559,0.19671 0.85411,-0.37493 -0.0752,-1.03669 -0.55175,-0.39288 -1.0859,-0.52886 -2.32277,-0.59132 -2.07886,-0.10498 -3.57164,0.12055 -3.74234,0.5654 -0.13961,0.36384 0.71525,3.56798 1.04073,3.90078 0.25989,0.26574 2.36438,0.75825 3.33785,0.78115 0.49618,0.0117 1.01819,-0.15433 1.37981,-0.43879 z m -92.83489,-8.2257 c 0.26256,-0.31637 0.0241,-4.038 -0.29144,-4.54856 -0.0923,-0.14943 -0.62886,-0.46886 -1.19224,-0.70983 -1.38297,-0.59154 -2.0178,-1.22498 -2.0178,-2.01339 0,-0.92277 0.74742,-1.847 2.12019,-2.62175 l 1.19137,-0.67235 0,-2.04921 c 0,-2.45221 -0.18108,-2.735 -1.48166,-2.31385 -2.63586,0.85354 -4.37151,2.14652 -5.38129,4.00881 -0.68953,1.27166 -0.75362,1.54945 -0.75362,3.26641 0,3.67778 1.71211,6.1004 5.23653,7.40964 1.6042,0.59592 2.22874,0.65523 2.56996,0.24408 z m 69.88926,-31.743737 c 1.05853,-2.64551 1.31217,-6.017705 0.57482,-7.642029 -0.83751,-1.844987 -5.23971,-4.056646 -7.4772,-3.756537 -1.16571,0.156353 -3.41616,1.188562 -4.04067,1.853328 -0.57201,0.608876 -0.46156,0.960015 0.53627,1.705011 0.57392,0.428485 0.60187,0.428801 1.94505,0.02212 2.14737,-0.65017 2.75296,-0.569904 3.74794,0.496753 1.0797,1.15748 1.21569,1.739079 0.85442,3.653731 l -0.29294,1.552565 1.58569,1.512108 c 0.87215,0.83166 1.72456,1.512107 1.89427,1.512107 0.16973,0 0.47227,-0.40912 0.67235,-0.909154 z"
     id="path3167"
     inkscape:connector-curvature="0" />
</svg>
