<?xml version="1.0" encoding="UTF-8" standalone="no"?>
<!-- Created with Inkscape (http://www.inkscape.org/) -->

<svg
   xmlns:dc="http://purl.org/dc/elements/1.1/"
   xmlns:cc="http://creativecommons.org/ns#"
   xmlns:rdf="http://www.w3.org/1999/02/22-rdf-syntax-ns#"
   xmlns:svg="http://www.w3.org/2000/svg"
   xmlns="http://www.w3.org/2000/svg"
   xmlns:sodipodi="http://sodipodi.sourceforge.net/DTD/sodipodi-0.dtd"
   xmlns:inkscape="http://www.inkscape.org/namespaces/inkscape"
   id="svg3135"
   version="1.1"
   inkscape:version="0.48.4 r9939"
   width="1243.6188"
   height="1436.0073"
   sodipodi:docname="PDXGO.png">
  <metadata
     id="metadata3141">
    <rdf:RDF>
      <cc:Work
         rdf:about="">
        <dc:format>image/svg+xml</dc:format>
        <dc:type
           rdf:resource="http://purl.org/dc/dcmitype/StillImage" />
        <dc:title></dc:title>
      </cc:Work>
    </rdf:RDF>
  </metadata>
  <defs
     id="defs3139" />
  <sodipodi:namedview
     pagecolor="#878787"
     bordercolor="#666666"
     borderopacity="1"
     objecttolerance="10"
     gridtolerance="10"
     guidetolerance="10"
     inkscape:pageopacity="0"
     inkscape:pageshadow="2"
     inkscape:window-width="1920"
     inkscape:window-height="1149"
     id="namedview3137"
     showgrid="true"
     fit-margin-top="0"
     fit-margin-left="0"
     fit-margin-right="0"
     fit-margin-bottom="0"
     inkscape:zoom="0.3337544"
     inkscape:cx="-131.6513"
     inkscape:cy="172.85515"
     inkscape:window-x="10"
     inkscape:window-y="24"
     inkscape:window-maximized="0"
     inkscape:current-layer="svg3135">
    <inkscape:grid
       type="xygrid"
       id="grid3173"
       empspacing="5"
       visible="true"
       enabled="true"
       snapvisiblegridlinesonly="true"
       originx="-5.3044486px"
       originy="-563.45706px" />
  </sodipodi:namedview>
  <path
     sodipodi:type="star"
     style="fill:#ffffff;fill-opacity:1"
     id="path3169"
     sodipodi:sides="6"
     sodipodi:cx="-89.886452"
     sodipodi:cy="-34.430103"
     sodipodi:r1="1171.3514"
     sodipodi:r2="1014.4202"
     sodipodi:arg1="0.52359878"
     sodipodi:arg2="1.0471976"
     inkscape:flatsided="true"
     inkscape:rounded="0"
     inkscape:randomized="0"
     d="M 924.53365,551.24562 -89.886457,1136.9213 -1104.3066,551.24561 l 0,-1171.35144 1014.420153,-585.67567 1014.420107,585.67568 z"
     transform="matrix(0.61297029,0,0,0.61297029,676.90711,739.10826)" />
  <path
     style="fill:#02d6fe"
     d="M 355.21327,1180.7642 92.423285,1029.0044 92.246342,724.96403 92.069399,420.9237 l 2.642802,-1.71903 c 6.731269,-4.37838 522.062109,-301.51744 523.388389,-301.78501 1.05483,-0.21281 79.52687,44.72824 261.73319,149.8948 143.12472,82.60929 261.41562,150.96584 262.86872,151.90344 l 2.642,1.70472 -0.011,303.46665 c -0.01,166.90664 -0.2437,303.81303 -0.5284,304.23643 -0.5921,0.8805 -525.34893,303.9505 -526.22691,303.919 -0.31641,-0.011 -118.83073,-68.3126 -263.36521,-151.7805 z m 459.35405,-39.988 c 10.33216,-3.4664 15.9882,-6.6953 24.19148,-13.8106 8.80832,-7.6403 16.6377,-21.3657 19.24376,-33.7359 0.83726,-3.9742 1.92626,-7.2711 2.56928,-7.7785 0.87369,-0.6894 14.55828,-0.8806 63.00224,-0.8806 57.07107,0 61.9212,-0.091 62.33603,-1.1724 0.24743,-0.6448 -1.82424,-21.4901 -4.60376,-46.3229 -8.42928,-75.30913 -11.58474,-112.89605 -12.5441,-149.42104 -0.74574,-28.39005 0.44379,-34.04912 13.09808,-62.31518 2.72977,-6.09743 3.84046,-9.62262 4.55056,-14.44288 0.51663,-3.50708 2.1212,-9.68553 3.56563,-13.72989 1.9357,-5.41953 2.52152,-8.0134 2.22773,-9.86343 -0.56102,-3.53273 -4.16434,-6.66352 -8.96008,-7.78492 -9.50969,-2.22378 -16.08987,-7.1388 -19.98733,-14.92929 -3.17398,-6.34444 -3.1842,-8.84017 -0.0634,-15.4777 1.89935,-4.03977 2.82876,-7.5699 4.21958,-16.02638 2.2087,-13.42934 3.08422,-15.07463 11.66231,-21.91527 3.67441,-2.93022 7.09864,-6.32628 8.0978,-8.03131 1.19073,-2.03173 2.60881,-7.23356 4.54176,-16.65989 2.66404,-12.99147 5.00026,-22.59311 13.44871,-55.27307 3.4329,-13.27859 3.6205,-14.45412 3.2566,-20.39822 -0.3282,-5.36167 -0.7631,-7.0703 -2.8997,-11.3934 -4.5036,-9.11258 -10.97932,-13.31978 -22.57025,-14.66383 -12.96584,-1.50348 -18.65401,-6.31486 -18.66612,-15.78899 0,-2.53272 -0.39292,-3.42724 -2.24795,-5.16004 -4.15983,-3.88589 -12.95322,-7.40347 -23.77354,-9.50999 -10.91227,-2.12444 -46.75499,-1.4413 -118.41125,2.25681 -21.44916,1.10696 -24.39318,1.40384 -25.89151,2.61088 -1.09244,0.88002 -1.13944,3.66865 -0.0948,5.62059 0.76794,1.43485 1.08582,1.45747 13.91448,0.98989 7.22074,-0.26318 26.44428,-1.13841 42.71894,-1.94496 16.54583,-0.81998 40.77126,-1.50971 54.9534,-1.5646 27.04961,-0.10468 29.59768,0.13095 41.64072,3.85066 5.82739,1.79991 8.0232,3.83834 8.04419,7.46779 0.0345,5.93488 5.24044,12.68017 12.6452,16.38378 5.52148,2.76167 8.33136,3.56123 14.81079,4.21442 7.37883,0.74386 11.29426,3.03709 14.29505,8.37241 3.71025,6.59653 3.52555,10.26562 -1.4958,29.71359 -7.86571,30.4646 -10.62423,41.84556 -12.77305,52.69826 -1.17381,5.9283 -2.6057,11.69052 -3.18201,12.80494 -0.57623,1.11443 -3.37674,3.92931 -6.22326,6.25525 -10.42184,8.51596 -12.31062,11.95322 -14.79373,26.92218 -1.36475,8.22687 -2.20998,11.29236 -4.26185,15.4574 -2.10669,4.27622 -2.55541,5.95075 -2.53652,9.46488 0.0402,7.45936 4.16166,16.27952 10.74423,22.99313 4.24818,4.3328 8.5752,6.8789 14.46648,8.51256 2.54272,0.70503 4.9084,1.56723 5.25707,1.91591 0.37558,0.37558 -0.51163,4.18308 -2.177,9.34271 -1.54609,4.78975 -3.04026,10.44276 -3.32052,12.5622 -0.30175,2.28247 -2.80065,9.31982 -6.12928,17.261 -8.21631,19.60195 -9.66074,24.3278 -10.52125,34.42218 -2.08323,24.43657 2.3327,88.30869 12.08834,174.84486 3.6587,32.4544 3.94333,36.0166 2.94198,36.8158 -0.87334,0.697 -13.21312,0.8465 -58.14147,0.7045 l -57.03296,-0.1802 -1.9209,-7.7498 c -2.33313,-9.413 -4.45172,-14.2966 -9.48073,-21.8548 -9.43578,-14.1811 -25.63745,-24.5787 -41.47777,-26.6187 -9.68779,-1.2477 -375.63135,-1.1857 -385.46336,0.066 -11.33632,1.4424 -21.83587,6.5759 -31.14935,15.2298 -5.76877,5.3602 -10.07845,10.6962 -13.43688,16.6367 -2.53166,4.4781 -6.17859,15.0031 -6.8834,19.8656 -0.26498,1.8281 -0.89751,3.6688 -1.40561,4.0905 -0.65212,0.5412 -15.39456,0.7014 -50.12123,0.5446 l -49.19738,-0.2219 -4.16998,-1.6739 c -5.43975,-2.1837 -9.75085,-6.2387 -12.44018,-11.7017 -1.92372,-3.9075 -2.20835,-5.3024 -2.53349,-12.4156 -0.23729,-5.1924 0.0296,-11.3234 0.75821,-17.4155 0.61844,-5.1711 1.12443,-10.8251 1.12443,-12.5642 0,-4.1116 -1.86721,-11.2528 -6.69078,-25.58958 -4.34308,-12.90842 -5.99077,-19.25293 -5.99077,-23.06704 0,-1.61528 2.21223,-7.79789 6.04248,-16.88725 8.55998,-20.31289 10.04802,-26.62718 10.92325,-46.35073 1.21757,-27.43851 3.14538,-34.19623 17.6213,-61.77029 l 6.16782,-11.74861 1.47775,-12.90997 c 3.62073,-31.63258 5.33168,-40.91991 9.08133,-49.2946 6.17972,-13.80197 10.46848,-33.63246 18.41495,-85.14694 6.06425,-39.31293 6.58568,-45.67986 4.92658,-60.162 -0.79042,-6.89938 -1.06723,-6.05903 4.07585,-12.37608 2.63586,-3.23757 2.99425,-4.10074 2.99425,-7.21159 0,-4.30022 -1.48233,-10.22722 -4.34815,-17.38634 l -2.15107,-5.37349 0.4695,-11.62476 c 0.25821,-6.39361 1.24497,-17.17062 2.19278,-23.9489 0.9478,-6.77827 1.72814,-13.11905 1.73406,-14.09061 0.0197,-3.21921 0.75751,-3.54904 9.54125,-4.26496 5.70339,-0.46487 11.79758,-1.58093 19.08707,-3.49553 5.88974,-1.54694 11.28722,-2.80971 11.9945,-2.80614 0.70728,0.004 5.40748,1.93129 10.44488,4.28384 12.23319,5.71315 16.75402,7.3855 26.77216,9.90367 14.11408,3.54774 15.89851,5.337 17.58622,17.63381 0.54904,4.00051 1.51051,11.07812 2.13656,15.72803 2.85307,21.19027 11.12024,34.9735 25.0975,41.84323 8.35249,4.10517 15.36363,5.75049 26.51423,6.22213 15.52434,0.65663 27.56371,-1.60068 43.85627,-8.22281 8.63268,-3.50878 15.15438,-5.12393 25.01084,-6.19413 l 4.93171,-0.53548 0.21918,-3.04632 c 0.35558,-4.94185 -0.33916,-5.30148 -9.36385,-4.84726 -8.68277,0.437 -12.95343,1.53236 -25.02507,6.41851 -14.59978,5.90943 -26.18663,7.96428 -40.32325,7.15105 -18.32033,-1.0539 -29.60269,-7.10798 -36.0259,-19.33135 -3.35018,-6.37537 -4.30848,-10.34451 -6.82415,-28.26421 -2.49954,-17.80454 -3.30982,-20.64383 -7.13049,-24.9843 -3.79171,-4.30758 -6.30653,-5.48728 -17.94601,-8.41847 -7.20376,-1.81412 -13.19058,-3.97508 -22.62234,-8.16553 -7.69876,-3.42054 -14.16903,-5.85064 -16.18561,-6.07901 -2.56576,-0.29056 -6.02303,0.31513 -14.63205,2.56345 -6.53381,1.70636 -13.7046,3.10532 -17.05795,3.32786 -5.31231,0.35254 -6.09645,0.22659 -9.58803,-1.53998 l -3.80257,-1.92393 -2.91739,1.48836 c -1.60457,0.81859 -2.92824,1.71968 -2.94141,2.00242 -0.0134,0.28275 -0.14824,4.95263 -0.30006,10.37752 -0.1519,5.42488 -0.95344,13.98493 -1.78127,19.02233 -0.89764,5.46189 -1.666,14.13563 -1.90364,21.48818 l -0.39855,12.32929 3.26057,9.709 c 1.79331,5.33996 3.26056,10.62565 3.26056,11.746 0,1.48778 -0.73151,2.66912 -2.71321,4.38161 -4.55064,3.93247 -4.57734,4.06863 -4.03464,20.61674 0.56623,17.26747 0.41215,18.92957 -4.93559,53.23775 -7.91484,50.77732 -11.53683,68.09532 -17.15687,82.03326 -5.39213,13.37249 -6.3045,17.81378 -9.85766,47.98615 l -2.07019,17.5798 -3.69745,6.69305 c -9.01151,16.31235 -15.7924,32.35388 -17.89754,42.33969 -0.98346,4.66498 -2.03574,16.13769 -2.80474,30.57924 -0.89532,16.81334 -2.0852,21.41061 -10.58726,40.90533 -3.22105,7.38574 -6.07278,14.58153 -6.33712,15.99066 -0.7263,3.87154 1.17107,11.86916 7.42569,31.30061 3.2166,9.99292 5.62011,18.67682 5.61694,20.29342 0,1.5542 -0.47866,6.6182 -1.0568,11.2534 -3.46566,27.7853 1.2714,41.3458 17.61891,50.4367 l 5.63624,3.1344 51.55136,0.3555 c 28.35334,0.1956 51.75025,0.5543 51.99324,0.7973 0.24299,0.243 1.21905,3.8875 2.16904,8.0989 5.1902,23.0077 21.2931,40.4076 43.99914,47.5431 l 5.28398,1.6605 90.53219,0.3626 c 49.79271,0.1995 137.13691,0.2512 194.09824,0.115 l 103.56602,-0.2478 6.34077,-2.1272 z m -117.61931,-10.4555 c -8.67588,-1.4515 -18.4976,-8.7727 -23.92171,-17.8314 -2.89322,-4.832 -5.71078,-12.9756 -6.73433,-19.4644 -1.21172,-7.6822 -0.89031,-22.7495 0.64395,-30.1849 3.91845,-18.9899 17.37725,-32.924 34.22067,-35.4291 8.42389,-1.2529 21.01012,1.0195 26.92959,4.862 1.80832,1.1738 2.02102,3.9437 0.60392,7.8651 -1.40835,3.8974 -2.3105,4.0402 -8.93894,1.415 -5.13983,-2.0356 -6.77822,-2.3528 -12.2725,-2.3759 -5.38896,-0.023 -6.92254,0.2473 -10.21573,1.7978 -7.71221,3.6311 -13.25807,10.7428 -16.58148,21.2632 -1.53158,4.8482 -1.73491,6.7594 -1.72413,16.2042 0.008,6.5498 0.40335,12.5532 1.01939,15.4603 2.18052,10.2896 8.33298,19.2302 15.73442,22.8647 3.66744,1.801 4.69901,1.973 11.83537,1.973 5.59052,0 8.14959,-0.2755 8.98277,-0.9669 0.99536,-0.8261 1.1753,-2.7248 1.23504,-13.0338 0.0388,-6.6368 0.27618,-14.7618 0.5284,-18.0555 l 0.45844,-5.9885 5.57509,-0.2078 c 3.98426,-0.1485 5.74016,0.053 6.15386,0.7045 0.31831,0.5018 0.58364,10.4323 0.58956,22.0677 0.009,17.3911 -0.1717,21.4158 -1.01481,22.6195 -2.53096,3.6135 -22.24633,6.2583 -33.10684,4.4412 z m 72.95531,-0.366 c -10.72993,-2.8855 -18.71452,-11.0313 -23.05943,-23.5251 -4.42009,-12.7099 -4.98315,-35.515 -1.2442,-50.3925 4.8559,-19.322 20.4311,-31.227 37.53317,-28.6886 17.42628,2.5864 28.11352,16.3604 31.00569,39.9611 3.31813,27.0762 -4.96976,52.4459 -19.54643,59.8324 -7.60583,3.8542 -16.88479,4.9112 -24.6888,2.8127 z m 15.58605,-11.9624 c 6.50705,-2.2172 12.17464,-10.4097 14.34819,-20.7402 1.57075,-7.4657 1.06793,-34.4551 -0.74821,-40.1582 -2.5733,-8.0809 -6.92054,-13.9861 -11.99872,-16.2989 -4.01238,-1.8274 -13.53939,-1.8091 -17.11291,0.033 -8.4791,4.3705 -12.58363,14.7311 -13.31683,33.6143 -0.93576,24.1015 4.04739,38.9815 14.5778,43.5301 3.2271,1.3939 10.18969,1.4037 14.25068,0.02 z m -271.75669,10.9443 c -2.32495,-0.3491 -5.1783,-0.9067 -6.34077,-1.239 l -2.1136,-0.6042 -0.18106,-47.1877 c -0.14203,-37.024 0.01,-47.4411 0.70453,-48.3644 2.34137,-3.1111 27.7905,-3.5226 36.05584,-0.5829 12.49887,4.4454 20.94901,13.4726 25.67387,27.4271 1.74738,5.1607 1.82946,6.0921 1.8432,20.9011 0.0141,15.222 -0.0211,15.6006 -1.97417,21.1359 -2.77874,7.876 -5.69261,12.6988 -10.65124,17.6291 -4.95721,4.9288 -11.00145,8.3362 -17.37386,9.7943 -5.71551,1.3078 -20.11802,1.9204 -25.64274,1.0907 z m 22.24098,-12.3868 c 10.51378,-3.1148 16.33208,-9.8483 19.41419,-22.4681 1.625,-6.6538 1.64064,-22.6382 0.0296,-29.9259 -2.98728,-13.5101 -10.64243,-21.2349 -23.01441,-23.2239 -6.12843,-0.9851 -12.20663,-0.9399 -13.24518,0.099 -1.11386,1.1138 -1.22504,73.2182 -0.11618,75.2901 0.63612,1.1886 1.52052,1.3628 6.91744,1.3628 3.632,0 7.76886,-0.4683 10.01483,-1.1337 z m -108.16364,11.7504 c -0.58955,-0.9539 -1.40293,-93.1006 -0.84156,-95.3374 0.61456,-2.4488 3.01743,-3.0845 14.90209,-3.9424 14.35249,-1.0361 24.81554,0.3571 32.46978,4.3234 1.12873,0.5849 3.57443,2.4048 5.43489,4.0441 11.58763,10.2104 11.71874,33.1751 0.2549,44.6389 -6.18677,6.1868 -13.43301,8.5645 -28.42408,9.3265 -5.10778,0.2597 -9.6625,0.7043 -10.12171,0.9881 -0.58991,0.3645 -0.94041,5.5537 -1.19454,17.6846 -0.20417,9.7459 -0.66289,17.5494 -1.06095,18.0493 -0.82803,1.0399 -10.79376,1.2362 -11.41882,0.2249 z m 30.35337,-48.7183 c 6.4244,-0.8935 9.78318,-2.4379 12.81696,-5.8932 6.98768,-7.9585 5.06924,-24.8867 -3.41479,-30.132 -3.56218,-2.2023 -9.99778,-3.3138 -19.39573,-3.3498 -8.78754,-0.034 -8.24632,-1.4011 -7.95556,20.0998 0.13597,10.0514 0.50367,18.6716 0.81718,19.156 0.71926,1.1114 9.55647,1.1728 17.13194,0.1192 z m 124.36982,48.4484 c -0.57243,-0.6897 -0.26364,-1.9918 1.21123,-5.1078 3.05484,-6.4542 12.32344,-22.8328 19.22121,-33.966 3.42698,-5.5313 6.23094,-10.5762 6.23094,-11.2107 0,-0.6346 -4.08761,-8.315 -9.08351,-17.0675 -11.99006,-21.0058 -16.47031,-29.4781 -15.99496,-30.2472 0.65246,-1.0558 4.4632,-1.5161 8.79916,-1.0629 l 4.10742,0.4293 8.37567,14.4023 c 8.85398,15.2247 11.52725,19.0605 12.75518,18.3016 0.41504,-0.2565 4.98913,-7.6082 10.16461,-16.337 9.1415,-15.418 9.4901,-15.8924 12.22291,-16.6344 2.81072,-0.7631 9.12585,-0.5381 10.02117,0.3572 0.712,0.712 -2.29282,6.4504 -14.69503,28.0629 l -11.27066,19.6407 6.68093,10.7113 c 12.73911,20.4243 21.13768,36.1163 20.75751,38.7837 -0.20318,1.4258 -0.60138,1.5179 -6.55706,1.5179 l -6.34078,0 -6.74701,-12.5425 c -8.07012,-15.0022 -13.60315,-23.7408 -15.03194,-23.7408 -1.57526,0 -3.90599,3.4265 -12.02183,17.6736 -4.06472,7.1354 -8.18059,14.3209 -9.14629,15.9677 l -1.75597,2.9943 -5.56734,0 c -3.7388,0 -5.81964,-0.304 -6.33556,-0.9257 z M 405.2947,1010.27 c 8.76218,-2.9021 20.49663,-8.9715 27.41695,-14.18085 8.6169,-6.48662 22.95904,-21.06787 28.53349,-29.00927 20.73709,-29.54224 30.51478,-63.12038 25.75969,-88.46263 -1.97726,-10.53788 -5.32322,-16.37351 -11.44482,-19.96098 -2.99869,-1.75738 -3.50243,-1.82797 -10.4937,-1.47113 -4.03915,0.20615 -7.34382,0.12379 -7.34382,-0.18304 0,-0.30675 2.86314,-2.68961 6.36255,-5.29518 6.79372,-5.05832 7.72807,-6.17613 7.72807,-9.24563 0,-2.70314 -8.09288,-10.55964 -13.69714,-13.2971 -3.38724,-1.65452 -5.13476,-2.04948 -9.1589,-2.06984 -4.56141,-0.0233 -5.58517,0.27075 -12.3705,3.55126 -29.94065,14.4755 -65.07426,50.25129 -81.50822,82.99801 -4.91804,9.79982 -7.50226,16.54182 -9.88689,25.79365 -1.65733,6.43011 -1.90244,8.73357 -1.87384,17.61327 0.0289,8.9736 0.26237,10.98666 1.92062,16.55647 1.03827,3.48743 3.5085,9.6434 5.48943,13.68001 3.03166,6.17789 4.50765,8.24548 9.32756,13.06638 6.04389,6.0452 11.43129,9.3999 18.13441,11.2922 6.02782,1.7017 19.94653,0.9953 27.10506,-1.3756 z m -24.87318,-15.85862 c -2.92951,-1.78627 -6.33387,-6.50881 -7.31289,-10.14461 -0.47577,-1.76703 -0.6562,-7.3169 -0.47168,-14.51044 0.26244,-10.22944 0.52643,-12.33584 2.16643,-17.28524 2.08238,-6.28449 11.14187,-25.24926 12.44695,-26.05587 0.48648,-0.30063 1.6815,0.29012 2.84856,1.40821 3.43768,3.29347 4.57402,2.37646 10.8478,-8.75372 3.05569,-5.42094 7.53206,-12.48781 9.94755,-15.70413 10.77269,-14.34446 27.47381,-27.00093 40.35573,-30.58241 4.68668,-1.30303 6.71897,-1.04137 9.61691,1.23821 6.28575,4.9444 6.26018,19.16676 -0.0676,37.44454 -6.13844,17.73142 -20.19058,42.3566 -32.32451,56.64589 -9.96439,11.73445 -24.45567,22.08964 -36.91254,26.37693 -4.88459,1.68115 -8.29557,1.65747 -11.14089,-0.0774 z m 292.61697,16.14382 c 9.20688,-4.457 22.57535,-24.6871 33.60058,-50.84682 l 3.77917,-8.96692 14.83122,-16.74845 c 16.8294,-19.00486 18.05381,-20.24561 19.45103,-19.70946 0.5556,0.21319 2.00841,2.1324 3.22852,4.26495 9.06019,15.83552 22.41175,19.35169 37.3204,9.82834 5.38043,-3.43691 8.20947,-5.97357 13.634,-12.22502 4.13391,-4.76396 5.15773,-5.52831 9.79784,-7.3145 6.77364,-2.60754 11.59947,-5.34796 15.5659,-8.83933 1.76986,-1.55793 3.68167,-2.83256 4.24839,-2.83256 0.62697,0 1.64431,1.72384 2.5986,4.40331 2.03412,5.71185 5.82583,11.48949 8.68376,13.23201 1.34868,0.82232 3.53083,1.38278 5.38987,1.3844 2.81777,0 3.43896,-0.3293 6.34078,-3.38541 2.03384,-2.14185 5.80829,-8.15516 10.26233,-16.34927 10.27981,-18.91179 21.77606,-35.86766 23.29129,-34.35236 0.21982,0.21975 -0.89968,3.84054 -2.48762,8.04617 -4.07282,10.78629 -5.65746,17.50914 -5.64935,23.96813 0.0169,13.59082 8.92816,20.6281 19.46942,15.37519 7.88229,-3.9279 16.2071,-13.29612 29.86111,-33.60372 l 8.38765,-12.47499 -1.10717,-2.67242 c -1.3279,-3.20548 -2.25999,-4.43382 -3.36448,-4.43382 -0.45266,0 -4.0395,3.88372 -7.97085,8.6305 -7.88476,9.52011 -11.15519,12.86452 -15.26218,15.60718 -5.45053,3.63982 -8.61514,1.65283 -8.00925,-5.02873 0.48113,-5.30589 2.56893,-10.10318 10.35301,-23.7884 7.67368,-13.49106 8.3036,-15.36349 6.74588,-20.0532 -1.38736,-4.17702 -5.83013,-10.62031 -7.8193,-11.34027 -2.67158,-0.9669 -6.09349,1.532 -16.88239,12.32886 -12.67852,12.68783 -21.91055,24.0176 -32.36987,39.72532 -8.06942,12.11863 -9.54724,13.75878 -11.0462,12.25982 -1.32868,-1.32867 0.0836,-4.49913 8.65396,-19.42877 10.78961,-18.7954 12.16873,-23.10008 8.00819,-24.99576 -3.83244,-1.74618 -13.97521,-0.0254 -17.13862,2.90823 -4.24741,3.93839 -9.38886,13.1054 -14.10696,25.15224 -1.59351,4.06866 -3.80905,8.76619 -4.92341,10.43896 -5.23889,7.86397 -13.96217,14.79528 -15.97699,12.69487 -0.73518,-0.76632 -0.64331,-2.3804 0.49465,-8.69095 1.57484,-8.73287 1.393,-16.63242 -0.49113,-21.34137 -0.62569,-1.5637 -2.55498,-4.13305 -4.28735,-5.70965 -2.67109,-2.43092 -3.03787,-3.07549 -2.41372,-4.24177 1.75033,-3.2705 0.53706,-7.14669 -2.77254,-8.85814 -8.13747,-4.20809 -27.90498,4.48011 -42.14475,18.52345 -11.92355,11.75912 -18.4184,24.51711 -18.44856,36.23902 -0.012,4.57572 0.42779,3.97982 -14.81755,20.08659 -6.75144,7.13296 -9.14692,9.05865 -9.14692,7.35326 0,-0.31499 1.40744,-5.31286 3.12763,-11.10629 5.3409,-17.98787 8.25865,-29.82236 7.76399,-31.49118 -1.58456,-5.34605 -7.97648,-10.32561 -11.30659,-8.80833 -1.98565,0.90469 -6.25559,7.27083 -17.59596,26.23377 -6.97063,11.65603 -9.37315,15.03334 -14.04524,19.74426 -6.11808,6.16873 -13.92998,10.9322 -17.92841,10.9322 -1.90167,0 -2.38173,-0.3808 -3.3244,-2.63692 -1.40307,-3.35807 -0.90602,-8.78627 1.17882,-12.8729 2.28113,-4.47138 6.51311,-8.68454 23.24438,-23.14102 21.75628,-18.79829 25.32818,-22.69772 24.35248,-26.58525 -0.74088,-2.95199 -3.35702,-4.0376 -8.7924,-3.6487 -4.03213,0.28851 -5.86469,0.89419 -11.04862,3.65194 -9.04907,4.81378 -16.53308,10.39887 -24.63138,18.38156 -9.29544,9.1627 -13.66212,15.08372 -18.44546,25.01084 -4.89783,10.16476 -7.9557,14.17896 -19.87812,26.09511 -8.35665,8.35214 -10.30398,9.92036 -15.65566,12.60821 -5.50281,2.76381 -6.63844,3.07697 -11.39529,3.14298 -4.30863,0.0599 -5.65062,-0.19593 -7.27414,-1.38588 -2.5559,-1.87335 -4.45708,-5.61856 -4.44503,-8.75654 0.009,-2.38096 0.38989,-2.73273 11.05677,-10.2157 22.49291,-15.77916 33.74878,-30.45982 32.35796,-42.20336 -0.7821,-6.60335 -4.67132,-9.57668 -12.52895,-9.57852 -10.84413,0 -22.99179,6.04932 -33.52079,16.69978 -9.01779,9.12184 -14.28479,18.19324 -18.56791,31.9797 -2.76444,8.89816 -5.96322,13.72948 -15.41873,23.28805 -8.58703,8.68067 -11.54958,10.20133 -15.86497,8.14346 -1.79796,-0.85741 -2.61578,-1.852 -3.24232,-3.94318 -1.58083,-5.27623 1.60865,-13.40976 10.25325,-26.14725 3.02426,-4.45616 5.93088,-9.12227 6.45906,-10.36921 2.07252,-4.89276 0.5947,-10.39338 -4.10135,-15.26542 -3.26078,-3.38309 -3.3919,-3.44276 -6.59265,-3.00405 -1.79613,0.24616 -8.86123,2.36313 -15.70018,4.70429 -11.52401,3.94502 -12.49958,4.16765 -13.3236,3.04061 -0.48908,-0.66881 -0.88918,-1.84375 -0.88918,-2.61106 0,-1.88729 -2.00045,-3.97242 -3.80799,-3.96925 -4.96321,0.009 -15.14262,11.3793 -19.5248,21.80924 -3.87549,9.22386 -3.43438,16.66645 1.19728,20.19911 1.32473,1.01043 2.40865,2.19743 2.40865,2.63769 0,0.44033 -1.90287,4.07507 -4.22853,8.07723 -2.32572,4.00223 -4.41656,8.02609 -4.64645,8.9419 -0.53269,2.1224 0.94259,6.6717 2.16355,6.6717 1.94042,0 11.25523,-12.70579 17.83019,-24.32111 l 3.59761,-6.35564 8.66989,-3.70259 c 8.56942,-3.65975 10.43121,-4.21133 10.43121,-3.0907 0,0.31605 -1.90597,4.74339 -4.23543,9.83856 -5.48737,12.00238 -6.57144,16.2817 -6.18845,24.42932 0.3486,7.41532 1.71363,10.69294 6.10574,14.66093 5.31907,4.80546 12.21748,5.02027 18.66929,0.58138 4.40522,-3.03089 13.98853,-13.38524 21.4407,-23.16561 3.60459,-4.73078 6.85184,-8.6014 7.21602,-8.6014 0.36424,0 2.04905,2.93261 3.74401,6.51691 3.66258,7.74512 6.75399,11.49364 11.69782,14.18446 6.85205,3.72936 15.07252,3.11099 25.74172,-1.9362 9.13516,-4.32152 19.92131,-14.35608 31.11067,-28.94282 2.65122,-3.45622 5.19013,-6.40221 5.64209,-6.54664 0.45196,-0.14443 2.03229,2.05356 3.51188,4.88437 1.47951,2.83073 4.16349,6.63055 5.96434,8.44387 9.82095,9.88915 20.81487,4.28228 41.34609,-21.08639 5.56124,-6.87143 7.69329,-8.71202 6.93684,-5.98851 -0.18839,0.67811 -1.86757,6.7811 -3.73155,13.56221 l -3.38903,12.32929 -9.4796,12.68155 c -11.88959,15.90549 -16.22844,22.55252 -20.21616,30.97068 -2.91126,6.14583 -5.16618,13.90202 -5.19584,17.87222 -0.0141,1.9196 3.55048,5.7582 5.34739,5.7582 0.68247,0 2.58753,-0.6519 4.23345,-1.4487 z m -81.43093,-87.49827 c 0.0592,-2.16298 4.29243,-11.39374 7.2976,-15.91422 4.59044,-6.90497 12.84966,-14.19482 16.09036,-14.20186 1.6698,-0.007 2.31811,3.04618 1.21411,5.71142 -1.69101,4.08247 -6.48696,10.81201 -11.15159,15.64748 -7.26794,7.53419 -13.52903,11.6106 -13.45048,8.75718 z m 172.26815,-7.82734 c -1.25534,-1.25533 -1.78366,-2.79269 -2.15664,-6.27546 -1.13232,-10.57346 1.93027,-18.04656 11.52964,-28.13382 6.52642,-6.85818 11.19577,-10.84216 11.89163,-10.1463 0.24786,0.24779 -0.28836,4.0884 -1.19157,8.53455 -1.94514,9.57514 -1.70369,14.89166 0.97585,21.486 1.60407,3.9477 1.67925,4.55078 0.78287,6.28413 -1.37905,2.66686 -6.31252,6.9788 -9.79283,8.55914 -4.29828,1.95176 -9.92297,1.80782 -12.03895,-0.30824 z M 337.78283,845.846 c 2.59288,-1.85883 5.80921,-7.35037 9.99511,-17.06549 4.6313,-10.74882 4.90896,-12.46717 2.48065,-15.35307 -1.75752,-2.08865 -1.84045,-2.47051 -1.13521,-5.22825 0.41849,-1.63627 1.50185,-4.87725 2.40745,-7.20221 l 1.6467,-4.22718 3.83596,-0.6004 c 28.5044,-4.4613 50.68584,-12.2973 68.65285,-24.2527 9.48566,-6.31189 22.08211,-18.85662 26.98769,-26.87693 7.65944,-12.52268 10.44917,-22.77543 9.79135,-35.98404 -0.62393,-12.52657 -4.71683,-22.70783 -12.03134,-29.92855 -4.64384,-4.58432 -9.38357,-7.22747 -16.64559,-9.28266 -6.39616,-1.81012 -28.13868,-1.81552 -38.74919,-0.01 -22.61008,3.8482 -47.43859,11.88421 -64.84902,20.98907 -11.21642,5.86564 -12.85551,7.62386 -18.20254,19.52552 -7.28161,16.2078 -8.52278,25.21402 -3.25345,23.60755 0.77498,-0.23623 9.17651,-4.32483 18.67006,-9.0857 9.49355,-4.76086 20.90695,-10.08521 25.3631,-11.83181 11.55163,-4.52788 23.11509,-7.92268 23.99371,-7.04413 0.68114,0.68123 -5.06987,13.72124 -17.8478,40.46861 l -4.57635,9.5793 -5.89263,3.3878 c -18.47998,10.62454 -24.89198,17.65406 -23.14975,25.37903 0.82776,3.67018 2.41584,5.69218 6.70953,8.54307 2.95262,1.96043 3.85456,2.96974 3.85456,4.3137 0,0.96492 -1.71673,7.03361 -3.8149,13.48591 -5.80596,17.8545 -7.46753,28.56591 -5.14363,33.15888 1.86102,3.67808 6.91933,4.38993 10.90268,1.53426 z m 30.68739,-80.15798 c -1.28993,-3.36153 1.93978,-6.42877 13.16295,-12.5007 5.03923,-2.72632 6.74877,-4.01357 6.91857,-5.20944 0.33916,-2.38829 -1.3825,-2.61254 -7.4321,-0.9681 -3.24845,0.88306 -5.68521,1.21898 -6.06763,0.83656 -0.38242,-0.38242 1.92964,-6.53156 5.75707,-15.31149 8.17601,-18.75525 9.95228,-23.52858 10.55317,-28.35956 l 0.48838,-3.92621 4.22634,-0.83698 c 8.32812,-1.64924 26.96838,-2.61705 34.0456,-1.76767 8.2335,0.9881 13.62316,3.29375 15.30586,6.5477 1.59471,3.08381 1.07462,10.24635 -1.12042,15.43156 -7.90067,18.66266 -28.29282,36.18871 -50.70789,43.58079 -10.48518,3.45776 -24.23459,4.81666 -25.1299,2.48354 z m 115.46962,40.59442 c 4.91614,-1.85749 12.06009,-7.36565 16.30023,-12.56777 2.21371,-2.71603 4.44559,-4.62369 6.34078,-5.41995 7.47838,-3.14186 10.50216,-4.85753 13.82282,-7.84312 3.61861,-3.25345 13.66825,-17.53633 16.34385,-23.22838 1.29556,-2.75612 2.07935,-3.38491 7.3286,-5.87881 6.58588,-3.12889 9.13508,-3.93474 9.67651,-3.05865 0.20227,0.32725 -1.17001,4.12376 -3.04956,8.43668 -6.84141,15.69885 -6.804,24.38895 0.13344,31.02141 2.6112,2.49629 5.35577,3.74535 8.20814,3.73535 5.07776,-0.0176 14.25913,-8.03616 24.59714,-21.48157 3.27733,-4.26241 6.20339,-7.84121 6.50239,-7.95288 0.299,-0.1116 0.69389,2.91845 0.87764,6.73362 0.76497,15.88647 7.4311,20.71962 20.16247,14.61831 5.98498,-2.86822 14.43189,-10.87647 24.12764,-22.87449 3.27198,-4.04901 6.26426,-7.37792 6.6495,-7.39757 0.38517,-0.0197 1.87701,2.34207 3.31517,5.24826 6.0658,12.25777 14.61168,14.97071 25.78244,8.18481 4.43551,-2.69441 12.38755,-10.44593 17.43101,-16.99145 1.79141,-2.32495 3.62636,-4.30207 4.07754,-4.39366 0.45125,-0.0916 3.44445,2.17481 6.65154,5.03648 8.17843,7.29731 11.38919,8.63317 15.51598,6.45526 2.45593,-1.29613 8.82981,-7.9185 17.00315,-17.66604 3.57408,-4.26241 7.09187,-8.17446 7.8174,-8.69348 2.01608,-1.44225 2.68285,-0.50163 2.03158,2.86596 -0.94463,4.8843 -0.74447,13.73292 0.37101,16.40267 1.18953,2.84694 4.7851,5.27045 7.82487,5.27419 4.55768,0.007 13.42469,-7.41089 25.52811,-21.352 3.59606,-4.14215 6.95005,-7.53116 7.45323,-7.53116 0.50324,0 1.68242,1.66446 2.62057,3.69879 0.93808,2.03433 2.93486,5.0462 4.43734,6.69304 2.37463,2.60282 3.11389,2.99426 5.65562,2.99426 1.6081,0 3.58156,-0.46063 4.38536,-1.02369 1.82043,-1.27506 5.36408,-6.83014 13.19339,-20.68234 8.09703,-14.3258 15.24893,-23.9809 15.24893,-20.58612 0,0.37629 -0.93033,3.2333 -2.06737,6.34888 -5.8071,15.91191 -5.48646,25.047 1.05419,30.03578 7.44851,5.68126 16.88978,-0.56229 31.55071,-20.86468 3.21795,-4.45616 6.31753,-8.19223 6.88792,-8.30234 0.60688,-0.11717 1.72673,1.05214 2.69913,2.81813 4.59142,8.33876 9.68455,13.23644 13.75941,13.23137 4.41988,-0.007 9.85512,-4.96314 19.90807,-18.1588 3.32933,-4.3702 6.39714,-7.83304 6.81732,-7.69524 0.42018,0.13781 1.17748,2.76233 1.68298,5.83218 3.13446,19.03608 12.46097,20.83806 27.61443,5.33548 6.48105,-6.63034 14.49502,-17.07985 17.74298,-23.13539 1.27477,-2.37667 1.44738,-3.33399 0.88792,-4.92487 -0.382,-1.0861 -1.18502,-2.06921 -1.78465,-2.18468 -0.65268,-0.12569 -4.43664,3.47857 -9.42944,8.98172 -7.77006,8.5642 -13.41948,13.40728 -15.63967,13.40728 -1.53827,0 -3.61304,-2.54786 -4.40902,-5.41439 -1.02481,-3.69046 -0.90067,-13.14781 0.23405,-17.83514 1.1226,-4.63725 3.13213,-10.32373 11.70169,-33.11295 10.06443,-26.76465 11.26411,-30.50106 11.26411,-35.08155 0,-6.36636 -2.91824,-9.23625 -7.97276,-7.84062 -6.69283,1.84798 -12.61518,14.15452 -21.6727,45.03577 -2.3408,7.98088 -2.31938,7.95407 -5.33921,6.6923 -3.91586,-1.63614 -6.41905,-1.28601 -12.54488,1.75473 -14.01333,6.95599 -27.16875,19.83527 -33.83044,33.12028 -3.63608,7.25126 -14.01184,20.55717 -18.86571,24.19341 -3.46065,2.59253 -5.143,2.88963 -6.8269,1.20573 -3.04266,-3.04259 -1.27823,-9.00681 7.0818,-23.93812 3.13136,-5.59269 5.86466,-11.22432 6.07411,-12.51474 0.47528,-2.92917 -3.26493,-10.95545 -5.91411,-12.69128 -1.6603,-1.08787 -1.92879,-1.07935 -4.17921,0.13257 -8.18643,4.40868 -27.68538,26.72433 -39.28864,44.96404 -3.38753,5.32513 -5.18317,7.53383 -5.98852,7.36615 -2.22293,-0.46281 -0.87932,-4.20393 5.48203,-15.26374 7.19657,-12.51183 8.51524,-15.35163 8.51524,-18.33832 0,-2.58655 -1.59259,-3.57154 -5.76609,-3.56614 -4.68112,0.006 -8.11972,1.2473 -10.75459,3.88215 -3.18159,3.18164 -8.68285,14.30168 -11.99985,24.25614 -2.62445,7.87631 -2.78022,8.13628 -8.38885,14.00073 -9.87646,10.32694 -15.10944,13.62344 -19.17338,12.07833 -4.0674,-1.54637 -3.54478,-5.81675 2.32277,-18.98076 2.16234,-4.85133 4.08198,-10.27517 4.26586,-12.05306 0.29689,-2.87018 0.0821,-3.51969 -1.9171,-5.79659 l -2.25147,-2.56428 1.46825,-2.06195 c 0.80753,-1.13406 1.46824,-2.53428 1.46824,-3.1116 0,-1.86245 -3.88908,-5.28051 -6.94428,-6.10318 -9.02067,-2.42902 -29.40782,8.88567 -46.28577,25.68818 -9.53754,9.49498 -12.19242,13.20581 -16.47477,23.02746 -2.70941,6.21411 -3.52357,7.35206 -9.11832,12.74546 -7.11604,6.85987 -11.2169,9.48397 -15.80368,10.11269 -2.87054,0.39341 -3.59233,0.2077 -5.83203,-1.50058 -3.31369,-2.52743 -5.1857,-6.71129 -5.20536,-11.63328 -0.0148,-3.70879 0.33888,-4.47131 7.84206,-16.90881 18.67211,-30.95146 22.86224,-42.38435 22.32982,-60.92741 -0.28259,-9.84059 -1.25012,-12.3348 -4.78482,-12.3348 -4.97103,0 -18.6919,19.01573 -29.93431,41.48596 -7.79831,15.5864 -10.63391,26.02693 -11.4518,42.16435 l -0.45378,8.95289 -3.19533,3.54393 c -14.4779,16.05738 -20.66058,20.92661 -25.14301,19.80161 -5.34739,-1.34213 -5.02253,-15.06709 0.71566,-30.23388 3.76952,-9.96326 4.0786,-10.30482 11.2994,-12.48717 9.36244,-2.82961 13.24722,-7.46232 16.25219,-19.38144 1.65071,-6.54735 1.30028,-7.3472 -3.21837,-7.3472 -4.23726,0 -4.67456,-0.66846 -3.19025,-4.87557 2.48826,-7.05239 0.86446,-10.5653 -4.42488,-9.573 -6.41595,1.20364 -8.75041,3.4511 -14.22307,13.69303 l -3.17264,5.93757 -4.57945,1.53116 c -9.98609,3.33891 -13.36671,6.18107 -17.15553,14.42274 -3.16644,6.88785 -4.41459,11.1201 -3.53794,11.99682 0.43575,0.43576 2.59499,0.26329 6.02606,-0.48126 6.42469,-1.39427 7.96754,-1.03482 7.30126,1.70095 -1.3007,5.3409 -16.16672,27.97381 -23.17173,35.2781 -6.28695,6.55552 -12.58038,7.58477 -14.40336,2.35553 -1.50234,-4.30961 1.25055,-11.50646 8.68891,-22.71562 2.55681,-3.85301 4.93883,-8.01678 5.29328,-9.25288 0.93879,-3.27332 -0.35057,-7.13535 -3.48059,-10.42572 -3.53245,-3.71337 -5.22093,-3.67737 -17.51555,0.37312 -10.32715,3.40239 -12.34486,3.62178 -12.75109,1.38666 -0.36234,-1.99389 -2.20441,-3.87492 -3.79475,-3.87492 -1.79803,0 -9.28423,7.19122 -12.17485,11.69514 -3.74536,5.83577 -5.50133,11.4971 -5.13539,16.55654 0.27688,3.82744 0.57743,4.56078 2.53553,6.18691 l 2.22139,1.84474 -1.18672,2.46586 c -0.65267,1.35622 -3.3072,4.60587 -5.89896,7.22144 -3.50842,3.54069 -5.19979,4.75558 -6.62048,4.75558 -1.84143,0 -1.89349,-0.10476 -1.48648,-2.99425 0.232,-1.64684 0.62125,-6.35896 0.86509,-10.47137 0.51804,-8.73816 -0.14852,-11.50182 -3.73028,-15.46636 -2.12353,-2.35052 -2.36328,-2.98946 -1.94951,-5.19499 0.98508,-5.25122 -4.00589,-8.29275 -11.10847,-6.76949 -4.6058,0.98776 -14.42358,6.10991 -20.53961,10.71599 -8.9939,6.77335 -17.6542,18.4885 -19.89855,26.91737 -1.9617,7.36734 -0.52685,17.71852 3.56175,25.69437 2.03236,3.96475 7.57349,9.51286 10.95855,10.97236 3.50702,1.51214 9.81179,1.38413 14.24033,-0.28921 z m -10.48609,-13.00556 c -3.35005,-1.45718 -4.01047,-3.2903 -3.51244,-9.74866 0.62788,-8.14227 2.65481,-12.01134 10.46432,-19.97479 3.55422,-3.62432 6.91265,-6.58962 7.46317,-6.58962 0.77294,0 0.90666,0.6822 0.58687,2.99426 -0.22784,1.64684 -0.60336,6.00612 -0.83445,9.6873 -0.35607,5.67091 -0.1986,7.32261 1.0313,10.81546 1.02798,2.91943 1.25392,4.49174 0.77413,5.38811 -1.23581,2.30924 -7.18593,7.01839 -9.77733,7.73821 -3.19977,0.88877 -3.47024,0.87524 -6.19557,-0.31027 z m 234.3373,-50.57981 c -1.28014,-1.34939 -1.45204,-2.18024 -1.15565,-5.58587 0.49578,-5.69635 3.27445,-10.29369 10.16208,-16.81342 8.63713,-8.17572 26.91435,-20.07843 28.03849,-18.25955 0.59301,0.95943 -5.3197,10.15435 -14.02636,21.81264 -8.37905,11.21972 -10.89373,14.10175 -15.46825,17.72825 -3.92297,3.11001 -5.44659,3.3356 -7.55031,1.11795 z m -48.94442,-32.76068 c 1.56139,-8.42345 8.10796,-25.27155 12.44723,-32.03367 2.14783,-3.34708 4.12862,-4.41473 4.12862,-2.22533 0,3.73371 -9.61952,27.55812 -13.8026,34.1846 -2.22787,3.52914 -3.41958,3.56112 -2.77325,0.0744 z m 224.43724,-8.58423 c -0.40116,-0.74948 -0.72236,-3.36505 -0.71383,-5.81238 0.0268,-7.68288 3.18356,-12.50607 12.91609,-19.73367 6.40919,-4.75962 13.46541,-9.02226 14.93513,-9.02226 3.66596,0 -3.83969,12.88081 -15.67912,26.90767 -7.54186,8.93528 -9.9238,10.5278 -11.45827,7.66064 z M 607.23729,672.44995 c 0.96437,-0.75857 2.94621,-3.69118 4.40403,-6.51691 1.45788,-2.82574 4.2493,-7.61039 6.20311,-10.63255 l 3.55238,-5.49485 -1.36728,-1.83136 c -1.92076,-2.57264 -7.86144,-5.75837 -11.72579,-6.28803 -2.9524,-0.40468 -3.45065,-0.25494 -5.26157,1.5812 -2.8344,2.87393 -12.24242,20.28772 -12.6657,23.44368 -0.28154,2.09894 0,3.04526 1.37235,4.64286 2.52447,2.93481 4.00258,2.07761 3.53724,-2.05125 -0.29971,-2.65847 -0.16211,-3.22342 0.78506,-3.22342 0.63161,0 1.14845,0.25497 1.14845,0.5666 0,0.31162 0.94414,2.05534 2.09802,3.87491 1.70793,2.69304 2.47643,3.30833 4.13222,3.30833 1.11872,0 2.82312,-0.62065 3.78748,-1.37921 z m 42.8125,-26.84217 c 16.22506,-2.94584 33.34685,-9.06729 62.36058,-22.29536 29.04858,-13.24398 44.50063,-26.63695 53.69722,-46.5417 4.33174,-9.37545 8.06983,-26.72277 10.20773,-47.37036 1.44605,-13.96557 1.20461,-79.79355 -0.34036,-92.80581 -3.24535,-27.33374 -9.88583,-46.4423 -32.78695,-94.34759 -17.43805,-36.47739 -18.95357,-39.06584 -29.99927,-51.23785 -7.80832,-8.60455 -31.63367,-30.96914 -38.59451,-36.22818 -6.50162,-4.91217 -13.02867,-7.95549 -22.43394,-10.46021 -23.10065,-6.15192 -54.31622,1.32691 -84.78041,20.31221 -9.88879,6.16273 -32.96549,21.72483 -38.85205,26.20049 -15.47481,11.76568 -25.88693,24.7156 -30.37296,37.77569 -1.17832,3.43048 -1.32212,5.93546 -1.25378,21.84045 0.11336,26.40161 0.9521,33.92917 5.18105,46.49903 7.56906,22.49757 16.95326,41.70334 28.91662,59.18058 4.37647,6.39361 9.31847,13.74047 10.98215,16.32633 12.05931,18.74374 14.47804,31.8904 16.50385,89.70554 0.77329,22.07068 1.66121,33.98577 2.88751,38.74919 1.58259,6.14739 12.13266,21.73249 19.16394,28.30992 5.48928,5.13495 14.9524,11.49606 17.10221,11.49606 0.84748,0 2.92288,-0.62711 4.61206,-1.39359 1.68912,-0.76647 4.22789,-1.40055 5.6416,-1.40906 3.05429,-0.0184 9.10543,3.00473 14.2447,7.11654 l 3.61629,2.89327 8.44478,-0.48537 c 4.64469,-0.26696 11.77807,-1.09057 15.85194,-1.83022 z m 23.2591,-180.599 c 0,-1.15029 4.06768,-4.87396 6.95555,-6.36736 2.5392,-1.31306 3.30855,-3.28577 4.68928,-12.02342 1.76521,-11.17076 1.01537,-10.46907 10.75241,-10.0612 12.16706,0.50967 17.79528,3.4508 20.98892,10.96809 2.20039,5.17943 -0.47197,12.57829 -5.69374,15.76394 -2.80551,1.71153 -4.2188,1.63491 -9.95575,-0.5398 -4.34837,-1.64833 -5.56509,-1.80337 -11.99027,-1.52781 -6.56531,0.28158 -7.43569,0.48948 -10.62968,2.53903 -3.79967,2.43827 -5.11672,2.75964 -5.11672,1.24853 z m 36.93752,-5.05502 c 1.36552,-1.36548 1.36531,-1.40691 -0.0289,-5.4986 -0.62478,-1.83374 -0.93209,-3.53801 -0.68283,-3.78726 0.24926,-0.24924 1.37278,0.09 2.49664,0.7539 2.80397,1.65633 3.30383,0.46382 1.42893,-3.40912 -2.60042,-5.37168 -7.33846,-7.83179 -16.42947,-8.53058 -5.73868,-0.44111 -5.98541,-0.39796 -7.00945,1.22576 -1.17283,1.85965 -3.6203,14.34367 -3.08535,15.73777 0.2065,0.53806 2.34567,1.03341 5.50838,1.27552 2.84397,0.21772 6.75602,1.04092 8.69348,1.82936 4.27583,1.74001 7.62362,1.88822 9.10863,0.40325 z M 613.6903,390.33357 c -3.04766,-1.37294 -4.20323,-3.27732 -6.67366,-10.99825 -1.17784,-3.68117 -2.38512,-6.94196 -2.68279,-7.24619 -0.29766,-0.30424 -2.09943,0.11929 -4.00392,0.94117 -6.33873,2.7355 -11.9153,0.26002 -15.15797,-6.7288 -2.49806,-5.38396 -1.57238,-10.19347 3.07534,-15.97825 2.02588,-2.52142 2.05871,-2.68561 1.20524,-6.01582 -0.74426,-2.90407 -0.7134,-3.74029 0.20368,-5.50994 3.30552,-6.37853 14.1157,-13.09245 21.18256,-13.15595 4.58706,-0.0412 6.64951,1.04588 8.90351,4.69291 l 1.54624,2.50184 5.88515,0 c 6.82909,0 8.38378,0.4724 11.99781,3.64555 3.06766,2.69349 5.21395,6.94059 5.23614,10.36163 0.012,1.88856 -0.60526,2.98392 -2.97876,5.28399 -1.64684,1.59585 -3.89993,3.53591 -5.00688,4.31124 l -2.01257,1.40968 3.6208,7.04469 c 2.07611,4.03929 3.79615,8.42861 4.03175,10.28864 0.61921,4.88803 -1.49065,6.80865 -12.78625,11.63916 -10.37577,4.43712 -12.48041,4.91149 -15.58542,3.5127 z m 8.71624,-4.27968 c 2.19215,-1.0206 3.69879,-2.17893 3.69879,-2.84372 0,-1.81719 -8.61289,-20.1841 -9.652,-20.58285 -1.23173,-0.47267 -6.18359,2.80887 -7.67628,5.08702 -1.07582,1.64186 -1.07371,2.10444 0.0296,6.4955 2.35693,9.38291 4.98307,13.58978 8.47296,13.57296 0.78563,-0.004 3.09289,-0.78179 5.12723,-1.72891 z m 14.326,-6.05626 c 2.87139,-2.04459 2.73774,-5.16257 -0.50226,-11.71982 -3.15052,-6.37623 -5.66886,-8.66935 -9.52081,-8.66935 -3.98772,0 -5.7668,1.09766 -5.23206,3.22809 0.77498,3.088 6.85241,16.82503 8.02524,18.14004 1.39236,1.56107 4.1959,1.18147 7.22989,-0.97896 z m -38.94963,-9.39769 c 1.04637,-0.54205 3.96327,-2.63635 6.48197,-4.65399 6.20043,-4.96699 11.14969,-7.3415 20.57765,-9.87257 9.70787,-2.6062 11.45609,-3.28598 14.03792,-5.45843 5.10094,-4.29214 -0.0557,-13.86893 -7.94641,-14.75834 -4.91346,-0.55381 -8.46634,0.84113 -14.64782,5.75107 -6.1879,4.91506 -10.76735,6.9706 -17.30462,7.76741 -6.82422,0.83179 -10.04625,3.27542 -11.73036,8.89651 -1.05997,3.53798 0.6123,8.14906 4.05006,11.16746 2.73858,2.40453 3.73606,2.58317 6.48161,1.16088 z m -56.9966,-4.26157 c -13.57032,-3.74274 -23.79271,-13.87916 -27.74703,-27.51357 -1.56786,-5.4059 -1.63641,-14.96943 -0.14273,-19.91714 8.7316,-28.92398 43.40458,-38.35094 64.32189,-17.48799 8.02115,8.00031 11.54676,16.40963 11.54676,27.5417 0,10.94735 -3.49468,19.32989 -11.35083,27.22704 -4.90924,4.93486 -11.98999,8.97552 -18.23946,10.40849 -4.28361,0.9822 -14.40603,0.83989 -18.3886,-0.25853 z m 24.92348,-5.5672 c 16.17102,-8.21576 23.9477,-26.14438 18.4475,-42.52928 -5.13384,-15.29342 -18.10369,-24.82447 -33.81712,-24.85096 -16.39267,-0.0276 -30.23381,10.87417 -34.47389,27.15292 -4.3931,16.86618 4.8929,34.47325 21.93789,41.59616 3.75254,1.56813 4.91185,1.70114 13.33846,1.53038 9.1546,-0.18551 9.27169,-0.2088 14.56716,-2.89922 z m 0.34064,-27.52016 c -5.5858,-2.01089 -8.48523,-5.21061 -9.34779,-10.3159 -1.30901,-7.74813 4.71472,-14.75739 12.68247,-14.75739 4.26227,0 7.28802,1.34645 10.02132,4.45944 5.32773,6.06799 3.29248,15.86108 -4.06486,19.5592 -3.59332,1.80613 -6.33817,2.11771 -9.29114,1.05465 z m 58.6259,-10.19146 c -11.83238,-3.78712 -22.08394,-13.11822 -26.31119,-23.94874 -3.37273,-8.64116 -2.82869,-22.24046 1.2318,-30.79063 3.26268,-6.87023 10.74395,-14.74631 17.25931,-18.17002 15.46403,-8.12612 33.92224,-5.49734 45.92794,6.54096 16.59501,16.64011 16.29149,41.39989 -0.70242,57.30331 -7.3937,6.91925 -16.6873,10.41765 -27.49396,10.3496 -3.71915,-0.0234 -7.50389,-0.5139 -9.91148,-1.28448 z m 18.87332,-2.55647 c 16.06542,-3.78779 28.35018,-18.85369 28.35018,-34.7683 0,-6.12496 -2.44339,-14.7988 -5.68867,-20.19417 -9.5845,-15.93484 -32.46005,-21.81805 -48.54991,-12.48625 -19.65063,11.39693 -24.42566,37.5029 -10.1215,55.33608 3.04442,3.79554 10.50448,9.09663 15.14579,10.76255 7.06369,2.5354 13.94752,2.98085 20.86411,1.35009 z M 648.5757,290.695 c -10.66314,-6.84916 -6.79928,-23.42785 5.74087,-24.63281 4.79786,-0.461 9.15939,1.29814 12.29181,4.95763 2.2843,2.66868 2.47318,3.24329 2.4722,7.51829 0,5.53691 -1.34439,8.56503 -5.14646,11.60319 -2.26986,1.81379 -3.40598,2.18092 -7.39757,2.39047 -4.24684,0.22294 -5.03859,0.0402 -7.96085,-1.83677 z m -83.40037,327.45687 c 0.71285,-1.15335 -2.04779,-5.2429 -3.70189,-5.48392 -1.00614,-0.14661 -1.9166,0.40897 -2.74696,1.67618 -1.2113,1.84874 -1.20179,1.92797 0.3858,3.21355 1.75492,1.42104 5.3352,1.77191 6.06305,0.59419 z m 220.30685,-22.68926 c 2.00763,-2.14917 2.10296,-2.50951 1.69553,-6.40773 -0.38961,-3.72721 -0.29457,-4.16638 0.97352,-4.49798 3.87583,-1.01357 -1.19017,-6.65543 -8.30579,-9.24992 -6.80386,-2.48083 -7.55468,-2.16983 -11.2398,4.65553 -1.72955,3.20346 -2.98213,6.24809 -2.78346,6.76585 0.19868,0.51777 1.73646,1.65411 3.41726,2.52519 1.68087,0.87109 4.45644,2.74056 6.1681,4.15438 6.11419,5.05041 7.09025,5.24948 10.07464,2.05468 z M 789.81371,409.579 c 2.31924,-1.82431 2.3551,-3.93083 0.11843,-6.96244 -2.05822,-2.78983 -1.70799,-3.80424 1.10048,-3.18738 2.85807,0.62773 2.72569,-1.19652 -0.24011,-3.30833 -1.76076,-1.25379 -3.46537,-1.68774 -7.41251,-1.88706 -6.63414,-0.33501 -11.39796,0.38471 -11.94271,1.80433 -0.44554,1.16111 2.28254,11.38629 3.32123,12.44834 0.82937,0.84804 7.54531,2.41974 10.65187,2.49282 1.58343,0.0373 3.2493,-0.49251 4.40332,-1.40028 z M 493.55513,383.3288 c 0.8379,-1.0096 0.0769,-12.88622 -0.93005,-14.51555 -0.2947,-0.47687 -2.00685,-1.49623 -3.80474,-2.26524 -4.4134,-1.88775 -6.43927,-3.90919 -6.43927,-6.4252 0,-2.94479 2.38518,-5.89423 6.76603,-8.36664 l 3.80193,-2.14565 0,-6.53952 c 0,-7.8256 -0.57786,-8.72803 -4.72832,-7.38404 -8.41167,2.72383 -13.95055,6.85004 -17.17301,12.79306 -2.20046,4.0582 -2.40498,4.94467 -2.40498,10.42391 0,11.7367 5.46377,19.46787 16.71104,23.64596 5.1194,1.90173 7.11245,2.09101 8.20137,0.77891 z M 716.58866,282.02687 c 3.37801,-8.44246 4.18745,-19.20395 1.83439,-24.38756 -2.67271,-5.8878 -16.72119,-12.94574 -23.86157,-11.98802 -3.72006,0.49896 -10.90177,3.79299 -12.89474,5.91442 -1.82544,1.94307 -1.47297,3.06364 1.71137,5.4411 1.8315,1.3674 1.92069,1.36841 6.20713,0.0706 6.85276,-2.07485 8.78536,-1.8187 11.96056,1.58526 3.44558,3.6938 3.87957,5.54982 2.72668,11.65994 l -0.93484,4.95461 5.06029,4.8255 c 2.78325,2.65403 5.50351,4.8255 6.04508,4.8255 0.54165,0 1.50714,-1.3056 2.14565,-2.90133 z"
     id="path3167"
     inkscape:connector-curvature="0" />
</svg>
